<?xml version="1.0" encoding="UTF-8"?>
<svg width="103px" height="88px" viewBox="0 0 103 88" version="1.1" xmlns="http://www.w3.org/2000/svg" xmlns:xlink="http://www.w3.org/1999/xlink">
    <!-- Generator: Sketch 49.2 (51160) - http://www.bohemiancoding.com/sketch -->
    <title>placeholder-carb</title>
    <desc>Created with Sketch.</desc>
    <defs></defs>
    <g id="placeholder-carb" stroke="none" stroke-width="1" fill="none" fill-rule="evenodd" opacity="0.146342844">
        <path d="M31.709,28 L31.709,15.22 L37.217,15.22 C37.8410031,15.22 38.4169974,15.3489987 38.945,15.607 C39.4730026,15.8650013 39.9259981,16.2009979 40.304,16.615 C40.6820019,17.0290021 40.9789989,17.5029973 41.195,18.037 C41.4110011,18.5710027 41.519,19.1079973 41.519,19.648 C41.519,20.2120028 41.417001,20.7609973 41.213,21.295 C41.008999,21.8290027 40.7240018,22.3029979 40.358,22.717 C39.9919982,23.1310021 39.5480026,23.4609988 39.026,23.707 C38.5039974,23.9530012 37.9310031,24.076 37.307,24.076 L35.219,24.076 L35.219,28 L31.709,28 Z M35.219,21.016 L37.073,21.016 C37.2890011,21.016 37.4899991,20.917001 37.676,20.719 C37.8620009,20.520999 37.955,20.1640026 37.955,19.648 C37.955,19.1199974 37.8470011,18.760001 37.631,18.568 C37.4149989,18.375999 37.1990011,18.28 36.983,18.28 L35.219,18.28 L35.219,21.016 Z M42.923,28 L42.923,15.22 L46.433,15.22 L46.433,28 L42.923,28 Z M47.927,21.502 C47.927,20.7219961 48.0739985,19.9540038 48.368,19.198 C48.6620015,18.4419962 49.0909972,17.764003 49.655,17.164 C50.2190028,16.563997 50.902996,16.0780019 51.707,15.706 C52.511004,15.3339981 53.4289948,15.148 54.461,15.148 C55.6970062,15.148 56.7679955,15.4029974 57.674,15.913 C58.5800045,16.4230026 59.2549978,17.0979958 59.699,17.938 L57.017,19.846 C56.8969994,19.5339984 56.738001,19.276001 56.54,19.072 C56.341999,18.867999 56.1230012,18.7060006 55.883,18.586 C55.6429988,18.4659994 55.3940013,18.3820002 55.136,18.334 C54.8779987,18.2859998 54.6290012,18.262 54.389,18.262 C53.8849975,18.262 53.4500018,18.360999 53.084,18.559 C52.7179982,18.757001 52.4180012,19.0149984 52.184,19.333 C51.9499988,19.6510016 51.7760006,20.010998 51.662,20.413 C51.5479994,20.815002 51.491,21.213998 51.491,21.61 C51.491,22.0540022 51.5569993,22.479998 51.689,22.888 C51.8210007,23.296002 52.0129987,23.6559984 52.265,23.968 C52.5170013,24.2800016 52.8259982,24.5289991 53.192,24.715 C53.5580018,24.9010009 53.9689977,24.994 54.425,24.994 C54.6650012,24.994 54.9109987,24.9670003 55.163,24.913 C55.4150013,24.8589997 55.6579988,24.7690006 55.892,24.643 C56.1260012,24.5169994 56.3359991,24.355001 56.522,24.157 C56.7080009,23.958999 56.8549995,23.7160014 56.963,23.428 L59.825,25.138 C59.632999,25.6060023 59.342002,26.0259981 58.952,26.398 C58.561998,26.7700019 58.1180025,27.0819987 57.62,27.334 C57.1219975,27.5860013 56.5880029,27.7779993 56.018,27.91 C55.4479972,28.0420007 54.8930027,28.108 54.353,28.108 C53.4049953,28.108 52.5380039,27.9190019 51.752,27.541 C50.9659961,27.1629981 50.2880029,26.6620031 49.718,26.038 C49.1479972,25.4139969 48.7070016,24.706004 48.395,23.914 C48.0829984,23.121996 47.927,22.3180041 47.927,21.502 Z M61.067,28 L61.067,15.22 L64.577,15.22 L64.577,20.08 L68.465,15.22 L72.425,15.22 L67.781,20.944 L72.749,28 L68.717,28 L65.549,23.302 L64.577,24.31 L64.577,28 L61.067,28 Z M29.549,36.22 L31.835,41.746 L34.175,36.22 L37.991,36.22 L33.581,44.77 L33.581,49 L30.089,49 L30.089,44.734 L25.751,36.22 L29.549,36.22 Z M44.705,49.108 C43.7329951,49.108 42.851004,48.9220019 42.059,48.55 C41.266996,48.1779981 40.5890028,47.689003 40.025,47.083 C39.4609972,46.476997 39.0230016,45.7840039 38.711,45.004 C38.3989984,44.2239961 38.243,43.4200041 38.243,42.592 C38.243,41.7519958 38.4049984,40.9420039 38.729,40.162 C39.0530016,39.3819961 39.5059971,38.695003 40.088,38.101 C40.6700029,37.506997 41.359996,37.0330018 42.158,36.679 C42.956004,36.3249982 43.8289953,36.148 44.777,36.148 C45.7490049,36.148 46.630996,36.3339981 47.423,36.706 C48.215004,37.0780019 48.8929972,37.5699969 49.457,38.182 C50.0210028,38.7940031 50.4559985,39.4899961 50.762,40.27 C51.0680015,41.0500039 51.221,41.8479959 51.221,42.664 C51.221,43.5040042 51.0590016,44.3109961 50.735,45.085 C50.4109984,45.8590039 49.9610029,46.542997 49.385,47.137 C48.8089971,47.731003 48.122004,48.2079982 47.324,48.568 C46.525996,48.9280018 45.6530047,49.108 44.705,49.108 Z M41.807,42.628 C41.807,43.0600022 41.8669994,43.476998 41.987,43.879 C42.1070006,44.281002 42.2869988,44.6379984 42.527,44.95 C42.7670012,45.2620016 43.0699982,45.513999 43.436,45.706 C43.8020018,45.898001 44.2369975,45.994 44.741,45.994 C45.2450025,45.994 45.6829981,45.895001 46.055,45.697 C46.4270019,45.498999 46.7299988,45.2410016 46.964,44.923 C47.1980012,44.6049984 47.3719994,44.242002 47.486,43.834 C47.6000006,43.425998 47.657,43.0120021 47.657,42.592 C47.657,42.1599978 47.5970006,41.743002 47.477,41.341 C47.3569994,40.938998 47.1740012,40.5850015 46.928,40.279 C46.6819988,39.9729985 46.3760018,39.7270009 46.01,39.541 C45.6439982,39.3549991 45.2150025,39.262 44.723,39.262 C44.2189975,39.262 43.7840018,39.357999 43.418,39.55 C43.0519982,39.742001 42.7490012,39.9969984 42.509,40.315 C42.2689988,40.6330016 42.0920006,40.992998 41.978,41.395 C41.8639994,41.797002 41.807,42.2079979 41.807,42.628 Z M58.295,45.994 C58.703002,45.994 59.0509986,45.9040009 59.339,45.724 C59.6270014,45.5439991 59.8609991,45.3070015 60.041,45.013 C60.2210009,44.7189985 60.3529996,44.3800019 60.437,43.996 C60.5210004,43.6119981 60.563,43.2100021 60.563,42.79 L60.563,36.22 L64.073,36.22 L64.073,42.79 C64.073,43.6780044 63.9590011,44.5089961 63.731,45.283 C63.5029989,46.0570039 63.1490024,46.7259972 62.669,47.29 C62.1889976,47.8540028 61.5860036,48.2979984 60.86,48.622 C60.1339964,48.9460016 59.2790049,49.108 58.295,49.108 C57.2749949,49.108 56.4020036,48.9370017 55.676,48.595 C54.9499964,48.2529983 54.3530023,47.7940029 53.885,47.218 C53.4169977,46.6419971 53.0750011,45.9730038 52.859,45.211 C52.6429989,44.4489962 52.535,43.6420043 52.535,42.79 L52.535,36.22 L56.045,36.22 L56.045,42.79 C56.045,43.2100021 56.0869996,43.614998 56.171,44.005 C56.2550004,44.395002 56.3869991,44.7369985 56.567,45.031 C56.7470009,45.3250015 56.9779986,45.5589991 57.26,45.733 C57.5420014,45.9070009 57.886998,45.994 58.295,45.994 Z M66.089,49 L66.089,36.22 L71.957,36.22 C72.5810031,36.22 73.1569974,36.3489987 73.685,36.607 C74.2130026,36.8650013 74.6659981,37.2009979 75.044,37.615 C75.4220019,38.0290021 75.7189989,38.5029973 75.935,39.037 C76.1510011,39.5710027 76.259,40.1079973 76.259,40.648 C76.259,41.3920037 76.0970016,42.0849968 75.773,42.727 C75.4489984,43.3690032 74.9990029,43.893998 74.423,44.302 L77.123,49 L73.163,49 L70.913,45.076 L69.599,45.076 L69.599,49 L66.089,49 Z M69.599,42.016 L71.813,42.016 C72.0290011,42.016 72.2299991,41.8960012 72.416,41.656 C72.6020009,41.4159988 72.695,41.0800022 72.695,40.648 C72.695,40.2039978 72.5870011,39.8650012 72.371,39.631 C72.1549989,39.3969988 71.9390011,39.28 71.723,39.28 L69.599,39.28 L69.599,42.016 Z M27.389,63.502 C27.389,62.7219961 27.5359985,61.9540038 27.83,61.198 C28.1240015,60.4419962 28.5529972,59.764003 29.117,59.164 C29.6810028,58.563997 30.364996,58.0780019 31.169,57.706 C31.973004,57.3339981 32.8909948,57.148 33.923,57.148 C35.1590062,57.148 36.2299955,57.4029974 37.136,57.913 C38.0420045,58.4230025 38.7169978,59.0979958 39.161,59.938 L36.479,61.846 C36.3589994,61.5339984 36.200001,61.276001 36.002,61.072 C35.803999,60.867999 35.5850012,60.7060006 35.345,60.586 C35.1049988,60.4659994 34.8560013,60.3820002 34.598,60.334 C34.3399987,60.2859998 34.0910012,60.262 33.851,60.262 C33.3469975,60.262 32.9120018,60.360999 32.546,60.559 C32.1799982,60.757001 31.8800012,61.0149984 31.646,61.333 C31.4119988,61.6510016 31.2380006,62.010998 31.124,62.413 C31.0099994,62.815002 30.953,63.213998 30.953,63.61 C30.953,64.0540022 31.0189993,64.479998 31.151,64.888 C31.2830007,65.296002 31.4749987,65.6559984 31.727,65.968 C31.9790013,66.2800016 32.2879982,66.5289991 32.654,66.715 C33.0200018,66.9010009 33.4309977,66.994 33.887,66.994 C34.1270012,66.994 34.3729987,66.9670003 34.625,66.913 C34.8770013,66.8589997 35.1199988,66.7690006 35.354,66.643 C35.5880012,66.5169994 35.7979991,66.355001 35.984,66.157 C36.1700009,65.958999 36.3169995,65.7160014 36.425,65.428 L39.287,67.138 C39.094999,67.6060023 38.8040019,68.0259981 38.414,68.398 C38.023998,68.7700019 37.5800025,69.0819987 37.082,69.334 C36.5839975,69.5860013 36.0500028,69.7779993 35.48,69.91 C34.9099971,70.0420007 34.3550027,70.108 33.815,70.108 C32.8669953,70.108 32.0000039,69.9190019 31.214,69.541 C30.4279961,69.1629981 29.7500028,68.6620031 29.18,68.038 C28.6099971,67.4139969 28.1690016,66.706004 27.857,65.914 C27.5449984,65.121996 27.389,64.3180041 27.389,63.502 Z M43.841,57.22 L47.045,57.22 L51.473,70 L47.909,70 L47.135,67.498 L43.733,67.498 L42.977,70 L39.395,70 L43.841,57.22 Z M46.577,65.158 L45.443,61.198 L44.255,65.158 L46.577,65.158 Z M52.535,70 L52.535,57.22 L58.403,57.22 C59.0270031,57.22 59.6029974,57.3489987 60.131,57.607 C60.6590026,57.8650013 61.1119981,58.2009979 61.49,58.615 C61.8680019,59.0290021 62.1649989,59.5029973 62.381,60.037 C62.5970011,60.5710027 62.705,61.1079973 62.705,61.648 C62.705,62.3920037 62.5430016,63.0849968 62.219,63.727 C61.8949984,64.3690032 61.4450029,64.893998 60.869,65.302 L63.569,70 L59.609,70 L57.359,66.076 L56.045,66.076 L56.045,70 L52.535,70 Z M56.045,63.016 L58.259,63.016 C58.4750011,63.016 58.6759991,62.8960012 58.862,62.656 C59.0480009,62.4159988 59.141,62.0800022 59.141,61.648 C59.141,61.2039978 59.0330011,60.8650012 58.817,60.631 C58.6009989,60.3969988 58.3850011,60.28 58.169,60.28 L56.045,60.28 L56.045,63.016 Z M75.557,66.724 C75.557,67.3000029 75.4370012,67.7949979 75.197,68.209 C74.9569988,68.6230021 74.6270021,68.9619987 74.207,69.226 C73.7869979,69.4900013 73.2980028,69.6849994 72.74,69.811 C72.1819972,69.9370006 71.5910031,70 70.967,70 L64.685,70 L64.685,57.22 L72.101,57.22 C72.5450022,57.22 72.9469982,57.315999 73.307,57.508 C73.6670018,57.700001 73.9729987,57.9489985 74.225,58.255 C74.4770013,58.5610015 74.6719993,58.9089981 74.81,59.299 C74.9480007,59.6890019 75.017,60.087998 75.017,60.496 C75.017,61.096003 74.8640015,61.6689973 74.558,62.215 C74.2519985,62.7610027 73.7930031,63.1719986 73.181,63.448 C73.9130037,63.6640011 74.4919979,64.0389973 74.918,64.573 C75.3440021,65.1070027 75.557,65.8239955 75.557,66.724 Z M71.993,66.004 C71.993,65.6919984 71.9090008,65.431001 71.741,65.221 C71.5729992,65.010999 71.3570013,64.906 71.093,64.906 L68.195,64.906 L68.195,67.048 L70.967,67.048 C71.2550014,67.048 71.497999,66.9580009 71.696,66.778 C71.894001,66.5979991 71.993,66.3400017 71.993,66.004 Z M68.195,60.208 L68.195,62.17 L70.589,62.17 C70.8290012,62.17 71.047999,62.1040007 71.246,61.972 C71.444001,61.8399993 71.543,61.576002 71.543,61.18 C71.543,60.8319983 71.4590008,60.5830007 71.291,60.433 C71.1229992,60.2829993 70.9250011,60.208 70.697,60.208 L68.195,60.208 Z" id="Pick-your-Carb" fill="#000000"></path>
    </g>
</svg>