<?xml version="1.0" encoding="UTF-8"?>
<svg width="103px" height="88px" viewBox="0 0 103 88" version="1.1" xmlns="http://www.w3.org/2000/svg" xmlns:xlink="http://www.w3.org/1999/xlink">
    <!-- Generator: Sketch 49.2 (51160) - http://www.bohemiancoding.com/sketch -->
    <title>placeholder-protein</title>
    <desc>Created with Sketch.</desc>
    <defs></defs>
    <g id="placeholder-protein" stroke="none" stroke-width="1" fill="none" fill-rule="evenodd" opacity="0.146342844">
        <path d="M31.709,28 L31.709,15.22 L37.217,15.22 C37.8410031,15.22 38.4169974,15.3489987 38.945,15.607 C39.4730026,15.8650013 39.9259981,16.2009979 40.304,16.615 C40.6820019,17.0290021 40.9789989,17.5029973 41.195,18.037 C41.4110011,18.5710027 41.519,19.1079973 41.519,19.648 C41.519,20.2120028 41.417001,20.7609973 41.213,21.295 C41.008999,21.8290027 40.7240018,22.3029979 40.358,22.717 C39.9919982,23.1310021 39.5480026,23.4609988 39.026,23.707 C38.5039974,23.9530012 37.9310031,24.076 37.307,24.076 L35.219,24.076 L35.219,28 L31.709,28 Z M35.219,21.016 L37.073,21.016 C37.2890011,21.016 37.4899991,20.917001 37.676,20.719 C37.8620009,20.520999 37.955,20.1640026 37.955,19.648 C37.955,19.1199974 37.8470011,18.760001 37.631,18.568 C37.4149989,18.375999 37.1990011,18.28 36.983,18.28 L35.219,18.28 L35.219,21.016 Z M42.923,28 L42.923,15.22 L46.433,15.22 L46.433,28 L42.923,28 Z M47.927,21.502 C47.927,20.7219961 48.0739985,19.9540038 48.368,19.198 C48.6620015,18.4419962 49.0909972,17.764003 49.655,17.164 C50.2190028,16.563997 50.902996,16.0780019 51.707,15.706 C52.511004,15.3339981 53.4289948,15.148 54.461,15.148 C55.6970062,15.148 56.7679955,15.4029974 57.674,15.913 C58.5800045,16.4230026 59.2549978,17.0979958 59.699,17.938 L57.017,19.846 C56.8969994,19.5339984 56.738001,19.276001 56.54,19.072 C56.341999,18.867999 56.1230012,18.7060006 55.883,18.586 C55.6429988,18.4659994 55.3940013,18.3820002 55.136,18.334 C54.8779987,18.2859998 54.6290012,18.262 54.389,18.262 C53.8849975,18.262 53.4500018,18.360999 53.084,18.559 C52.7179982,18.757001 52.4180012,19.0149984 52.184,19.333 C51.9499988,19.6510016 51.7760006,20.010998 51.662,20.413 C51.5479994,20.815002 51.491,21.213998 51.491,21.61 C51.491,22.0540022 51.5569993,22.479998 51.689,22.888 C51.8210007,23.296002 52.0129987,23.6559984 52.265,23.968 C52.5170013,24.2800016 52.8259982,24.5289991 53.192,24.715 C53.5580018,24.9010009 53.9689977,24.994 54.425,24.994 C54.6650012,24.994 54.9109987,24.9670003 55.163,24.913 C55.4150013,24.8589997 55.6579988,24.7690006 55.892,24.643 C56.1260012,24.5169994 56.3359991,24.355001 56.522,24.157 C56.7080009,23.958999 56.8549995,23.7160014 56.963,23.428 L59.825,25.138 C59.632999,25.6060023 59.342002,26.0259981 58.952,26.398 C58.561998,26.7700019 58.1180025,27.0819987 57.62,27.334 C57.1219975,27.5860013 56.5880029,27.7779993 56.018,27.91 C55.4479972,28.0420007 54.8930027,28.108 54.353,28.108 C53.4049953,28.108 52.5380039,27.9190019 51.752,27.541 C50.9659961,27.1629981 50.2880029,26.6620031 49.718,26.038 C49.1479972,25.4139969 48.7070016,24.706004 48.395,23.914 C48.0829984,23.121996 47.927,22.3180041 47.927,21.502 Z M61.067,28 L61.067,15.22 L64.577,15.22 L64.577,20.08 L68.465,15.22 L72.425,15.22 L67.781,20.944 L72.749,28 L68.717,28 L65.549,23.302 L64.577,24.31 L64.577,28 L61.067,28 Z M29.549,36.22 L31.835,41.746 L34.175,36.22 L37.991,36.22 L33.581,44.77 L33.581,49 L30.089,49 L30.089,44.734 L25.751,36.22 L29.549,36.22 Z M44.705,49.108 C43.7329951,49.108 42.851004,48.9220019 42.059,48.55 C41.266996,48.1779981 40.5890028,47.689003 40.025,47.083 C39.4609972,46.476997 39.0230016,45.7840039 38.711,45.004 C38.3989984,44.2239961 38.243,43.4200041 38.243,42.592 C38.243,41.7519958 38.4049984,40.9420039 38.729,40.162 C39.0530016,39.3819961 39.5059971,38.695003 40.088,38.101 C40.6700029,37.506997 41.359996,37.0330018 42.158,36.679 C42.956004,36.3249982 43.8289953,36.148 44.777,36.148 C45.7490049,36.148 46.630996,36.3339981 47.423,36.706 C48.215004,37.0780019 48.8929972,37.5699969 49.457,38.182 C50.0210028,38.7940031 50.4559985,39.4899961 50.762,40.27 C51.0680015,41.0500039 51.221,41.8479959 51.221,42.664 C51.221,43.5040042 51.0590016,44.3109961 50.735,45.085 C50.4109984,45.8590039 49.9610029,46.542997 49.385,47.137 C48.8089971,47.731003 48.122004,48.2079982 47.324,48.568 C46.525996,48.9280018 45.6530047,49.108 44.705,49.108 Z M41.807,42.628 C41.807,43.0600022 41.8669994,43.476998 41.987,43.879 C42.1070006,44.281002 42.2869988,44.6379984 42.527,44.95 C42.7670012,45.2620016 43.0699982,45.513999 43.436,45.706 C43.8020018,45.898001 44.2369975,45.994 44.741,45.994 C45.2450025,45.994 45.6829981,45.895001 46.055,45.697 C46.4270019,45.498999 46.7299988,45.2410016 46.964,44.923 C47.1980012,44.6049984 47.3719994,44.242002 47.486,43.834 C47.6000006,43.425998 47.657,43.0120021 47.657,42.592 C47.657,42.1599978 47.5970006,41.743002 47.477,41.341 C47.3569994,40.938998 47.1740012,40.5850015 46.928,40.279 C46.6819988,39.9729985 46.3760018,39.7270009 46.01,39.541 C45.6439982,39.3549991 45.2150025,39.262 44.723,39.262 C44.2189975,39.262 43.7840018,39.357999 43.418,39.55 C43.0519982,39.742001 42.7490012,39.9969984 42.509,40.315 C42.2689988,40.6330016 42.0920006,40.992998 41.978,41.395 C41.8639994,41.797002 41.807,42.2079979 41.807,42.628 Z M58.295,45.994 C58.703002,45.994 59.0509986,45.9040009 59.339,45.724 C59.6270014,45.5439991 59.8609991,45.3070015 60.041,45.013 C60.2210009,44.7189985 60.3529996,44.3800019 60.437,43.996 C60.5210004,43.6119981 60.563,43.2100021 60.563,42.79 L60.563,36.22 L64.073,36.22 L64.073,42.79 C64.073,43.6780044 63.9590011,44.5089961 63.731,45.283 C63.5029989,46.0570039 63.1490024,46.7259972 62.669,47.29 C62.1889976,47.8540028 61.5860036,48.2979984 60.86,48.622 C60.1339964,48.9460016 59.2790049,49.108 58.295,49.108 C57.2749949,49.108 56.4020036,48.9370017 55.676,48.595 C54.9499964,48.2529983 54.3530023,47.7940029 53.885,47.218 C53.4169977,46.6419971 53.0750011,45.9730038 52.859,45.211 C52.6429989,44.4489962 52.535,43.6420043 52.535,42.79 L52.535,36.22 L56.045,36.22 L56.045,42.79 C56.045,43.2100021 56.0869996,43.614998 56.171,44.005 C56.2550004,44.395002 56.3869991,44.7369985 56.567,45.031 C56.7470009,45.3250015 56.9779986,45.5589991 57.26,45.733 C57.5420014,45.9070009 57.886998,45.994 58.295,45.994 Z M66.089,49 L66.089,36.22 L71.957,36.22 C72.5810031,36.22 73.1569974,36.3489987 73.685,36.607 C74.2130026,36.8650013 74.6659981,37.2009979 75.044,37.615 C75.4220019,38.0290021 75.7189989,38.5029973 75.935,39.037 C76.1510011,39.5710027 76.259,40.1079973 76.259,40.648 C76.259,41.3920037 76.0970016,42.0849968 75.773,42.727 C75.4489984,43.3690032 74.9990029,43.893998 74.423,44.302 L77.123,49 L73.163,49 L70.913,45.076 L69.599,45.076 L69.599,49 L66.089,49 Z M69.599,42.016 L71.813,42.016 C72.0290011,42.016 72.2299991,41.8960012 72.416,41.656 C72.6020009,41.4159988 72.695,41.0800022 72.695,40.648 C72.695,40.2039978 72.5870011,39.8650012 72.371,39.631 C72.1549989,39.3969988 71.9390011,39.28 71.723,39.28 L69.599,39.28 L69.599,42.016 Z M13.403,70 L13.403,57.22 L18.911,57.22 C19.5350031,57.22 20.1109974,57.3489987 20.639,57.607 C21.1670026,57.8650013 21.6199981,58.2009979 21.998,58.615 C22.3760019,59.0290021 22.6729989,59.5029973 22.889,60.037 C23.1050011,60.5710027 23.213,61.1079973 23.213,61.648 C23.213,62.2120028 23.111001,62.7609973 22.907,63.295 C22.702999,63.8290027 22.4180018,64.3029979 22.052,64.717 C21.6859982,65.1310021 21.2420026,65.4609988 20.72,65.707 C20.1979974,65.9530012 19.6250031,66.076 19.001,66.076 L16.913,66.076 L16.913,70 L13.403,70 Z M16.913,63.016 L18.767,63.016 C18.9830011,63.016 19.1839991,62.917001 19.37,62.719 C19.5560009,62.520999 19.649,62.1640026 19.649,61.648 C19.649,61.1199974 19.5410011,60.760001 19.325,60.568 C19.1089989,60.375999 18.8930011,60.28 18.677,60.28 L16.913,60.28 L16.913,63.016 Z M24.617,70 L24.617,57.22 L30.485,57.22 C31.1090031,57.22 31.6849974,57.3489987 32.213,57.607 C32.7410026,57.8650013 33.1939981,58.2009979 33.572,58.615 C33.9500019,59.0290021 34.2469989,59.5029973 34.463,60.037 C34.6790011,60.5710027 34.787,61.1079973 34.787,61.648 C34.787,62.3920037 34.6250016,63.0849968 34.301,63.727 C33.9769984,64.3690032 33.5270029,64.893998 32.951,65.302 L35.651,70 L31.691,70 L29.441,66.076 L28.127,66.076 L28.127,70 L24.617,70 Z M28.127,63.016 L30.341,63.016 C30.5570011,63.016 30.7579991,62.8960012 30.944,62.656 C31.1300009,62.4159988 31.223,62.0800022 31.223,61.648 C31.223,61.2039978 31.1150011,60.8650012 30.899,60.631 C30.6829989,60.3969988 30.4670011,60.28 30.251,60.28 L28.127,60.28 L28.127,63.016 Z M42.527,70.108 C41.5549951,70.108 40.673004,69.9220019 39.881,69.55 C39.088996,69.1779981 38.4110028,68.689003 37.847,68.083 C37.2829972,67.476997 36.8450016,66.7840039 36.533,66.004 C36.2209984,65.2239961 36.065,64.4200041 36.065,63.592 C36.065,62.7519958 36.2269984,61.9420039 36.551,61.162 C36.8750016,60.3819961 37.3279971,59.695003 37.91,59.101 C38.4920029,58.506997 39.181996,58.0330018 39.98,57.679 C40.778004,57.3249982 41.6509953,57.148 42.599,57.148 C43.5710049,57.148 44.452996,57.3339981 45.245,57.706 C46.037004,58.0780019 46.7149972,58.5699969 47.279,59.182 C47.8430028,59.7940031 48.2779985,60.4899961 48.584,61.27 C48.8900015,62.0500039 49.043,62.8479959 49.043,63.664 C49.043,64.5040042 48.8810016,65.3109961 48.557,66.085 C48.2329984,66.8590039 47.7830029,67.542997 47.207,68.137 C46.6309971,68.731003 45.944004,69.2079982 45.146,69.568 C44.347996,69.9280018 43.4750047,70.108 42.527,70.108 Z M39.629,63.628 C39.629,64.0600022 39.6889994,64.476998 39.809,64.879 C39.9290006,65.281002 40.1089988,65.6379984 40.349,65.95 C40.5890012,66.2620016 40.8919982,66.513999 41.258,66.706 C41.6240018,66.898001 42.0589975,66.994 42.563,66.994 C43.0670025,66.994 43.5049981,66.895001 43.877,66.697 C44.2490019,66.498999 44.5519988,66.2410016 44.786,65.923 C45.0200012,65.6049984 45.1939994,65.242002 45.308,64.834 C45.4220006,64.425998 45.479,64.0120021 45.479,63.592 C45.479,63.1599978 45.4190006,62.743002 45.299,62.341 C45.1789994,61.938998 44.9960012,61.5850015 44.75,61.279 C44.5039988,60.9729985 44.1980018,60.7270009 43.832,60.541 C43.4659982,60.3549991 43.0370025,60.262 42.545,60.262 C42.0409975,60.262 41.6060018,60.357999 41.24,60.55 C40.8739982,60.742001 40.5710012,60.9969984 40.331,61.315 C40.0909988,61.6330016 39.9140006,61.992998 39.8,62.395 C39.6859994,62.797002 39.629,63.2079979 39.629,63.628 Z M60.491,60.28 L56.819,60.28 L56.819,70 L53.309,70 L53.309,60.28 L49.619,60.28 L49.619,57.22 L60.491,57.22 L60.491,60.28 Z M70.877,66.94 L70.877,70 L61.769,70 L61.769,57.22 L70.715,57.22 L70.715,60.28 L65.279,60.28 L65.279,62.08 L69.923,62.08 L69.923,64.924 L65.279,64.924 L65.279,66.94 L70.877,66.94 Z M72.515,70 L72.515,57.22 L76.025,57.22 L76.025,70 L72.515,70 Z M81.731,63.718 L81.731,70 L78.221,70 L78.221,57.22 L80.957,57.22 L86.087,63.718 L86.087,57.22 L89.597,57.22 L89.597,70 L86.807,70 L81.731,63.718 Z" id="Pick-your-Protein" fill="#000000"></path>
    </g>
</svg>