<?xml version="1.0" encoding="UTF-8"?>
<svg width="103px" height="88px" viewBox="0 0 103 88" version="1.1" xmlns="http://www.w3.org/2000/svg" xmlns:xlink="http://www.w3.org/1999/xlink">
    <!-- Generator: Sketch 49.2 (51160) - http://www.bohemiancoding.com/sketch -->
    <title>carb-rice-white</title>
    <desc>Created with Sketch.</desc>
    <defs></defs>
    <g id="carb-rice-white" stroke="none" stroke-width="1" fill="none" fill-rule="evenodd">
        <g id="Group" transform="translate(25.000000, 16.000000)">
            <g id="noun_rice_1322346">
                <path d="M41.7959079,51.9858126 C41.8659119,52.268302 41.9359159,52.5507915 41.9359159,52.8332809 L41.9359159,54.6694622 C41.9359159,55.9406646 40.8858555,57 39.6257831,57 L13.3042696,57 C12.0441971,57 11.0641408,55.9406646 11.0641408,54.6694622 L11.0641408,52.8332809 C11.0641408,52.5507915 11.0641408,52.268302 11.2041488,51.9858126 C3.92373017,47.6778488 -0.136503299,41.1805918 0.00350475185,32.5646642 C1.05356513,31.2934618 4.34375432,29.5279028 6.02385093,29.0335463 C5.53382275,25.219939 7.77395156,22.1125552 10.8541287,20.8413528 L6.93390326,3.39763042 C6.86389923,2.90327391 7.14391533,2.47953977 7.56393949,2.40891741 C8.05396766,2.26767269 8.47399182,2.55016213 8.61399987,3.04451863 L12.4642213,20.4176187 C13.5842857,20.2057516 14.9143621,20.3469963 16.0344265,20.7001081 L15.0543702,0.855225538 C15.0543702,0.431491391 15.4043903,0.00775724434 15.8944185,0.00775724434 C16.3144427,-0.0628651135 16.7344668,0.360869033 16.7344668,0.78460318 L17.7145232,21.4063317 C25.2049539,10.7423556 41.0958676,14.8384524 43.4760045,27.6210991 C48.5162943,26.6323861 51.4564634,29.5279028 52.9965519,32.5646642 C53.13656,41.1805918 49.0063225,47.6778488 41.7959079,51.9858126 Z" id="Path" fill="#000000"></path>
                <path d="M12.8842454,22.5362894 L15.1243742,32.5646642 L16.5944588,32.5646642 L16.1044306,23.242513 C15.1243742,22.7481565 14.0743138,22.465667 12.8842454,22.5362894 Z" id="Path" fill="#FFFFFF"></path>
                <path d="M18.2045513,24.7255825 C18.0645433,24.5843378 17.9945393,24.5137154 17.8545312,24.443093 L18.2745554,32.5646642 L50.546411,32.5646642 C48.3062822,28.8216792 43.8960286,29.174791 41.5858958,30.5166158 C40.8158515,16.4627666 25.2049539,12.5785369 18.2045513,24.7255825 Z" id="Path" fill="#FFFFFF"></path>
                <path d="M13.4442776,32.5646642 L11.2741528,22.8894012 C8.89401597,23.8781142 7.49393546,26.8442532 8.47399182,30.5166158 C6.65388716,31.0109723 4.90378652,31.5053288 3.29369394,32.5646642 L13.4442776,32.5646642 Z" id="Path" fill="#FFFFFF"></path>
                <path d="M50.8964312,34.6833349 L2.10362551,34.6833349 C2.52364966,41.8161931 7.28392338,47.5366041 13.3042696,50.7146102 L15.2643823,51.7739455 L13.2342655,52.6214138 C13.1642615,52.6920362 13.1642615,52.7626585 13.1642615,52.8332809 L13.1642615,54.6694622 C13.1642615,54.7400845 13.2342655,54.8813293 13.3042696,54.8813293 L39.6257831,54.8813293 C39.7657911,54.8813293 39.8357952,54.7400845 39.8357952,54.6694622 L39.8357952,52.8332809 C39.8357952,52.7626585 39.7657911,52.6920362 39.6957871,52.6214138 L37.7356744,51.7739455 L39.6257831,50.7146102 C45.7161333,47.5366041 50.476407,41.8161931 50.8964312,34.6833349 Z" id="Path" fill="#FFFB76"></path>
            </g>
            <rect id="Rectangle-path-Copy-3" fill="#000000" fill-rule="nonzero" x="20" y="26" width="2" height="2"></rect>
            <rect id="Rectangle-path-Copy-4" fill="#000000" fill-rule="nonzero" x="25" y="22" width="2" height="2"></rect>
            <rect id="Rectangle-path-Copy-5" fill="#000000" fill-rule="nonzero" x="24" y="27" width="2" height="2"></rect>
            <rect id="Rectangle-path-Copy-6" fill="#000000" fill-rule="nonzero" x="35" y="23" width="2" height="2"></rect>
            <rect id="Rectangle-path-Copy-2" fill="#000000" fill-rule="nonzero" x="37" y="28" width="2" height="2"></rect>
        </g>
    </g>
</svg>