<?xml version="1.0" encoding="UTF-8"?>
<svg width="103px" height="88px" viewBox="0 0 103 88" version="1.1" xmlns="http://www.w3.org/2000/svg" xmlns:xlink="http://www.w3.org/1999/xlink">
    <!-- Generator: Sketch 49.2 (51160) - http://www.bohemiancoding.com/sketch -->
    <title>carb-pasta-pesto</title>
    <desc>Created with Sketch.</desc>
    <defs></defs>
    <g id="carb-pasta-pesto" stroke="none" stroke-width="1" fill="none" fill-rule="evenodd">
        <g id="Group" transform="translate(21.000000, 22.000000)">
            <circle id="Oval-5" fill="#FFFB76" cx="41" cy="20" r="20"></circle>
            <circle id="Oval-5-Copy" fill="#FFFB76" cx="16.5" cy="21.5" r="12.5"></circle>
            <path d="M60,20 C60,8.954305 51.045695,0 40,0 C28.954305,0 20,8.954305 20,20 C20,31.045695 60,31.045695 60,20 Z" id="Oval-4" stroke="#000000" stroke-width="2"></path>
            <path d="M56,21 C56,12.163444 48.836556,5 40,5 C31.163444,5 24,12.163444 24,21 C24,29.836556 56,29.836556 56,21 Z" id="Oval-4-Copy" stroke="#000000" stroke-width="2"></path>
            <path d="M52,22.0208153 C52,15.3819023 46.627417,10 40,10 C33.372583,10 28,15.3819023 28,22.0208153 C28,28.6597282 52,28.6597282 52,22.0208153 Z" id="Oval-4-Copy-2" stroke="#000000" stroke-width="2"></path>
            <path d="M47,24.8540039 C47,20.948761 46.0415039,15 40,15 C33.9584961,15 33,20.948761 33,24.8540039 C33,28.7592468 47,28.7592468 47,24.8540039 Z" id="Oval-4-Copy-3" stroke="#000000" stroke-width="2"></path>
            <path d="M18.8662692,7.28630833 C9.87823787,8.32600488 5.21157121,14.6593382 4.8662692,26.2863083" id="Line-3" stroke="#000000" stroke-width="2" stroke-linecap="square" transform="translate(11.866269, 16.786308) rotate(15.000000) translate(-11.866269, -16.786308) "></path>
            <path d="M19.0025308,12.3788354 C16.6303683,11.9613289 10.0734327,13.2057327 8.96885179,24.7381858" id="Line-3-Copy" stroke="#000000" stroke-width="2" stroke-linecap="square" transform="translate(13.985691, 18.525126) rotate(15.000000) translate(-13.985691, -18.525126) "></path>
            <path d="M19.2990306,17.6327731 C15.8175749,17.5846257 13.9357226,19.5153028 13.6534739,23.4248044" id="Line-3-Copy-2" stroke="#000000" stroke-width="2" stroke-linecap="square" transform="translate(16.476252, 20.528349) rotate(15.000000) translate(-16.476252, -20.528349) "></path>
            <path d="M61,21 L1,21 C0.4,21 0,21.4 0,22 C0,29.1 4.3,35.3 10.9,37.9 L18.1,40.7 C18.4,42.6 20.1,44 22,44 L40,44 C42,44 43.6,42.6 43.9,40.7 L51.1,37.9 C57.7,35.3 62,29.1 62,22 C62,21.4 61.6,21 61,21 Z" id="Path" stroke="#000000" stroke-width="2" fill="#FFFFFF"></path>
            <path d="M50.3198242,11.8662109 C51.5800781,14.9272461 59.2149936,12.7165098 56.390625,8.81622638 C53.5662564,4.91594298 51.2370151,2.40314044 41.9718783,0.338199032 C35.7951205,-1.03842857 29.4761101,1.78758054 23.0148471,8.81622638 L21.9879916,10.2747225 C19.7329157,8.7018058 16.7936254,8.7018058 13.1701205,10.2747225 C7.73486328,12.6340975 6.81289731,17.6007145 13.1701205,14.7659334 C17.4082693,12.8760794 20.0048828,12.8760794 20.9599609,14.7659334 C21.9578147,16.8290844 24.1162468,17.3448722 27.4352572,16.3132967 C32.4137729,14.7659334 28.6689453,12.916487 35.0078125,12.9873047 C41.3466797,13.0581224 38.5742187,8.14288653 39.8686523,10.2747225 C41.1630859,12.4065584 49.0595703,8.80517578 50.3198242,11.8662109 Z" id="Path-14" stroke="#000000" stroke-width="2" fill="#1AB220"></path>
        </g>
    </g>
</svg>