<?xml version="1.0" encoding="UTF-8"?>
<svg width="103px" height="88px" viewBox="0 0 103 88" version="1.1" xmlns="http://www.w3.org/2000/svg" xmlns:xlink="http://www.w3.org/1999/xlink">
    <!-- Generator: Sketch 49.2 (51160) - http://www.bohemiancoding.com/sketch -->
    <title>protein-eggs</title>
    <desc>Created with Sketch.</desc>
    <defs></defs>
    <g id="protein-eggs" stroke="none" stroke-width="1" fill="none" fill-rule="evenodd">
        <path d="M49.9137824,61.8003715 C51.0791476,61.0878067 50.0251689,56.0489725 49.088587,53.3178711 C48.1520052,50.5867697 55.0090436,51.4294622 52.4137824,50.1616211 C49.3895523,48.6816787 56.1481289,42.5224408 53.1667958,44 C52.7163785,41.6978674 56.5413503,37.3777478 55.5761705,34.9016446 C60.7166466,30.3736406 67.8851919,26.3699318 72.5966993,28.6696812 C75.8592453,30.2640152 77.8968471,35.0327184 78.1875926,41.7556128 C78.4402076,47.627719 77.2867581,54.2838849 75.3135017,58.3209579 C73.4999169,62.0315381 70.3541457,64.8126858 66.4481465,66.1544049 C62.5469135,67.4937408 58.3525519,67.2363595 54.6395886,65.4227747 C52.8355365,64.5433887 51.2578846,63.3160613 49.9137824,61.8003715 Z" id="Path-Copy-2" fill="#FFFFFF"></path>
        <path d="M40.7102791,63 C31.9603811,63 24.8425249,55.8796971 24.8425249,47.129799 C24.8425249,38.2991553 32.0264457,21 40.7102791,21 C49.3941125,21 56.5804801,38.2991553 56.5804801,47.1273522 C56.5804801,51.367725 54.9313103,55.3536266 51.9339319,58.3485581 C48.9390003,61.3483833 44.9530988,63 40.7102791,63 Z" id="Shape-Copy" fill="#FFFFFF" fill-rule="nonzero"></path>
        <path d="M62.5,61 C67.7467051,61 72,56.7467051 72,51.5 C72,46.2532949 67.7467051,42 62.5,42 C60.5553101,42 58.9740594,43.2002679 57.2413525,43.5869742 C57.2413525,43.5869742 57.2413525,45.0744496 57.2413525,48.3764648 C57.2413525,50.2697128 53.5538182,55.1571448 54.5082876,56.6385236 C56.1989126,59.2624485 59.1465429,61 62.5,61 Z" id="Oval" fill="#FEA815"></path>
        <path d="M67.0781383,67.8098493 C71.4184871,66.3198437 74.9148137,63.2266674 76.930565,59.1055758 C79.0406205,54.7911606 80.2312104,48.0012614 79.9624436,41.8101936 C79.6394519,34.3413045 77.3030664,29.1687215 73.3776559,27.2519896 C68.8204076,25.0216963 61.9597803,27.2991417 54.9529815,33.296886 C51.866878,26.2900872 46.9347707,20 41.177502,20 C31.4264523,20 24,38.0356698 24,47.0605775 C24,56.5334299 31.7093647,64.2380794 41.1798596,64.2380794 C43.7166414,64.2380794 46.1614766,63.6722545 48.3964851,62.6372664 C49.9525036,64.478555 51.8126531,65.9520575 53.9533575,67.0011912 C56.3392526,68.1658475 58.9043256,68.7552485 61.4811867,68.7552485 C63.3625546,68.7528909 65.2486377,68.4393296 67.0781383,67.8098493 Z M41.1751444,62.3519963 C32.7443528,62.3519963 25.8860831,55.491369 25.8860831,47.0605775 C25.8860831,38.551985 32.8080081,21.8837255 41.1751444,21.8837255 C49.5422806,21.8837255 56.4665632,38.551985 56.4665632,47.0582199 C56.4665632,51.1439474 54.8775382,54.9844842 51.9894734,57.8701913 C49.1037662,60.7606137 45.2632295,62.3519963 41.1751444,62.3519963 Z M58.1451772,44.2880353 C60.6772438,42.8098177 63.8057841,42.6636462 66.4439429,43.9556132 C68.5587136,44.9882437 70.145381,46.7847378 70.9116023,49.0126735 C71.6778235,51.2406092 71.5292945,53.6288619 70.4943064,55.7436326 C69.4616759,57.8584033 67.6675393,59.4450707 65.437246,60.211292 C63.2187408,60.9751557 60.8187,60.8266266 58.7062869,59.7939961 C57.3200158,59.1173638 56.1695051,58.0870909 55.3089797,56.8187 C57.2846518,53.9707145 58.3573615,50.5993409 58.3573615,47.0605775 C58.3573615,46.2141977 58.2701302,45.2687985 58.1451772,44.2880353 Z M50.1081055,61.7178009 C51.2609738,61.0128773 52.3478292,60.1853583 53.3262348,59.2045951 C53.5950017,58.9358283 53.8401925,58.6482006 54.0877409,58.3652881 C55.0920801,59.6784735 56.3746167,60.7535409 57.8740527,61.4867557 C59.3593432,62.2128977 60.9577986,62.5783263 62.5633269,62.5783263 C63.7326984,62.5783263 64.9091427,62.3826452 66.050223,61.9912829 C68.7520371,61.062387 70.9304631,59.1362246 72.187066,56.568794 C73.4413112,54.0013633 73.6204891,51.0967953 72.6939508,48.3949813 C71.7674125,45.6931672 69.8388925,43.5123836 67.2714618,42.2581383 C64.2796625,40.7940663 60.7715479,40.8365032 57.8221854,42.2982176 C57.3765983,40.0207723 56.6646019,37.5570762 55.7097724,35.1075257 C60.7951239,30.6280783 67.8867965,26.6673038 72.5477794,28.9423916 C75.7753391,30.5196286 77.7910904,35.237194 78.0787181,41.8879945 C78.3286241,47.6971305 77.1875438,54.2819182 75.2354478,58.2756992 C73.4413112,61.9464885 70.3292741,64.6978122 66.4651613,66.0251432 C62.6057637,67.3501166 58.4563809,67.0954954 54.783234,65.3013588 C52.9985279,64.431403 51.4377941,63.217237 50.1081055,61.7178009 Z" id="Shape" fill="#000000" fill-rule="nonzero"></path>
    </g>
</svg>