<?xml version="1.0" encoding="UTF-8"?>
<svg width="103px" height="88px" viewBox="0 0 103 88" version="1.1" xmlns="http://www.w3.org/2000/svg" xmlns:xlink="http://www.w3.org/1999/xlink">
    <!-- Generator: Sketch 49.2 (51160) - http://www.bohemiancoding.com/sketch -->
    <title>protein-shrimp</title>
    <desc>Created with Sketch.</desc>
    <defs></defs>
    <g id="protein-shrimp" stroke="none" stroke-width="1" fill="none" fill-rule="evenodd">
        <path d="M60.3588867,47.2597656 L53.8461914,45.762207 L52.0195312,42.934082 L51.1616211,40.40625 C51.1616211,39.0830078 51.1616211,38.25 51.1616211,37.9072266 C51.1616211,37.5644531 51.8194987,36.0307617 53.1352539,33.3061523 L56.5913086,31.3676758 L60.3588867,31.3676758 L67.324707,34.519043 L70.7402344,35.8510742 L75.2324219,37.9072266 L77.8505859,42.0834961 L77.8505859,45.762207 L76.3066406,46.6201172 L79.2177734,48.5961914 L80.3154297,54.5913086 L77.8505859,59.6738281 L77.8505859,62.3486328 C77.5374349,64.8714193 77.0227865,66.1328125 76.3066406,66.1328125 C75.5904948,66.1328125 73.3012695,66.9467773 69.4389648,68.574707 C66.9031576,69.4308268 64.8767904,69.8588867 63.3598633,69.8588867 C61.8429362,69.8588867 60.4835612,70.2010091 59.2817383,70.8852539 L56.5913086,74.3291016 L53.8461914,76.2783203 C52.628418,75.6298828 52.0195312,75.3056641 52.0195312,75.3056641 C52.0195312,75.3056641 51.7797852,72.9345703 51.1616211,72.9345703 C50.7495117,72.9345703 49.8916016,72.9345703 48.5878906,72.9345703 L46.2563477,70.8852539 L47.0068359,68.574707 C48.0608724,66.9467773 48.5878906,66.1328125 48.5878906,66.1328125 C48.5878906,66.1328125 48.7884115,65.1705729 49.1894531,63.2460938 C50.3323568,63.2460938 51.2757161,63.2460938 52.0195312,63.2460938 C53.1352539,63.2460938 56.6865234,64.2392578 57.2128906,64.2392578 C57.7392578,64.2392578 58.7324219,64.2392578 59.2817383,64.2392578 C59.8310547,64.2392578 64.847168,60.75 64.847168,60.75 C64.847168,60.75 65.9322917,59.3264974 68.1025391,56.4794922 L68.1025391,52.1723633 C68.250651,51.675944 67.9913737,51.4277344 67.324707,51.4277344 C66.6580404,51.4277344 65.3117676,50.7224935 63.2858887,49.3120117 L62.0415039,46.6201172 L60.3588867,47.2597656 Z M35.1728516,58.9980469 L31.1567383,55.9658203 L33.1647949,52.8657227 C35.3387858,49.9363607 36.4257812,48.4716797 36.4257812,48.4716797 C36.4257812,48.4716797 37.0454102,47.5681966 38.284668,45.7612305 L39.8706055,45.7612305 L46.0913086,47.1025391 L48.6713867,50.0820312 L48.6713867,53.5654297 L47.4458008,57.1572266 L45.3325195,60.0400391 L41.6860352,61.3930664 L38.284668,60.0400391 L35.1728516,58.9980469 Z" id="Path-2" fill="#F35A71"></path>
        <path d="M30.5253906,55.8881836 C27.4117839,54.9536133 25.8549805,54.4863281 25.8549805,54.4863281 C25.8549805,54.4863281 23.3105469,52.6484375 23.3105469,51.75 C23.3105469,51.1510417 22.8536784,50.1240234 21.9399414,48.6689453 L23.3105469,45.9291992 L21.9399414,43.347168 C20.6889648,40.683431 20.0634766,39.0123698 20.0634766,38.3339844 C20.0634766,37.655599 20.0634766,36.3953451 20.0634766,34.5532227 L21.9399414,32.5478516 C22.4034831,30.4329427 22.6352539,29.3754883 22.6352539,29.3754883 C22.6352539,29.3754883 25.2944336,25.7158203 25.2944336,25.7158203 C25.2944336,25.7158203 26.6228841,25.3492839 29.2797852,24.6162109 C32.1313477,23.6126302 33.5571289,23.1108398 33.5571289,23.1108398 C33.5571289,23.1108398 37.7475586,22.3369141 38.7895508,22.3369141 C39.4842122,22.3369141 40.1113281,22.0711263 40.6708984,21.5395508 C41.835612,20.0047201 42.585612,19.0563151 42.9208984,18.6943359 C43.2561849,18.3323568 44.1038411,17.5322266 45.4638672,16.2939453 L47.6767578,16.2939453 L48.5888672,18.6943359 L49.6367188,19.5117188 L52.4541016,19.5117188 L53.6992188,20.5878906 L53.6992188,22.3369141 L51.8027344,24.6162109 L51.8027344,26.3144531 L51.8027344,28.3359375 L47.6767578,29.3754883 C44.5061849,28.2299805 42.9208984,27.6572266 42.9208984,27.6572266 C42.9208984,27.6572266 42.1708984,27.2096354 40.6708984,26.3144531 L35.7231445,30.5136719 L31.7294922,36.0910645 L31.7294922,40.7817383 L34.3852539,40.7817383 L36.8813477,43.347168 L38.7895508,45.15625 L30.5253906,55.8881836 Z" id="Path-3" fill="#F35A71"></path>
        <path d="M77.979,46.49 C78.626,45.562 79,44.45 79,43.28 C79,42.26 78.723,41.26 78.198,40.387 C76.559,37.656 73.818,35.788 70.676,35.265 L69.381,35.049 C66.697,33.07 63.738,31.525 60.574,30.47 L60.217,30.35 C59.517,30.118 58.789,30 58.052,30 C55.215,30 52.639,31.785 51.641,34.442 L50.443,37.638 C50.149,38.42 50,39.242 50,40.079 C50,42.861 51.652,45.368 54.211,46.464 C56.457,47.427 58.83,47.924 61.266,47.979 C61.493,48.646 61.851,49.266 62.353,49.768 L63.232,50.647 C64.093,51.507 65.283,52 66.5,52 L67,52 L67,55.667 L64.891,58.479 C64.456,59.059 64.171,59.743 64.057,60.457 L59.281,64.039 L55.689,62.842 C54.014,62.283 52.268,62 50.5,62 C48.57,62 47,63.57 47,65.5 C47,66.109 47.165,66.683 47.45,67.194 C47.274,67.273 47.091,67.335 46.919,67.422 C45.735,68.015 45,69.205 45,70.528 C45,72.442 46.558,74 48.472,74 L48.599,74 C48.973,74 49.342,73.94 49.698,73.821 L50.005,73.719 C50.028,75.532 51.506,77 53.324,77 C54.686,77 55.968,76.399 56.841,75.354 L60.522,70.937 C64.951,70.692 69.263,69.686 73.365,67.931 C74.916,67.704 76.344,66.875 77.295,65.607 C78.395,64.141 79,62.324 79,60.492 L79,59.605 C79.501,59.294 79.947,58.883 80.288,58.371 C80.754,57.671 81,56.858 81,56.021 L81,52.606 C81,50.192 79.873,47.949 77.979,46.49 Z M61.052,45.968 C58.963,45.89 56.928,45.453 54.999,44.626 C53.177,43.845 52,42.06 52,40.079 C52,39.483 52.106,38.899 52.315,38.342 L53.513,35.146 C54.22,33.264 56.043,32 58.052,32 C58.573,32 59.089,32.083 59.583,32.248 L59.94,32.368 C62.759,33.308 65.397,34.673 67.813,36.396 L67.786,36.478 C67.355,37.774 66.615,38.971 65.648,39.939 L62.353,43.233 C61.608,43.978 61.171,44.937 61.052,45.968 Z M58.721,68.998 L58.177,67.367 L64.305,62.771 C64.632,63.61 65.211,64.342 65.984,64.857 L69.191,66.995 C69.316,67.078 69.45,67.142 69.58,67.215 C66.076,68.362 62.438,68.965 58.721,68.998 Z M49,65.5 C49,64.673 49.673,64 50.5,64 C52.053,64 53.585,64.249 55.056,64.739 L57.336,65.499 L56.667,66 L52.944,66 C51.744,66 50.548,66.182 49.388,66.499 C49.142,66.227 49,65.877 49,65.5 Z M49.064,71.925 C48.914,71.975 48.757,72 48.599,72 L48.472,72 C47.66,72 47,71.34 47,70.528 C47,69.966 47.312,69.462 47.813,69.211 C49.399,68.419 51.174,68 52.944,68 L56.279,68 L56.735,69.368 L49.064,71.925 Z M55.304,74.072 C54.812,74.662 54.091,75 53.324,75 C52.594,75 52,74.406 52,73.676 C52,73.545 52.02,73.416 52.074,73.229 L52.125,73.013 L57.75,71.138 L55.304,74.072 Z M77,60.491 C77,61.893 76.536,63.284 75.695,64.407 C74.946,65.404 73.756,66 72.509,66 C71.72,66 70.956,65.769 70.3,65.331 L67.093,63.193 C66.408,62.737 66,61.974 66,61.151 C66,60.624 66.174,60.1 66.49,59.678 L68.34,57.212 L75.191,59.952 C75.698,60.155 76.227,60.252 76.751,60.252 C76.834,60.252 76.917,60.242 77,60.237 L77,60.491 Z M79,56.021 C79,56.463 78.87,56.892 78.624,57.261 C78.042,58.135 76.908,58.487 75.934,58.096 L69,55.323 L69,51.894 C69.455,51.799 69.897,51.645 70.306,51.418 L71.486,50.763 L70.515,49.015 L69.335,49.67 C68.945,49.886 68.506,50 68.062,50 L66.5,50 C65.81,50 65.135,49.72 64.646,49.232 L63.767,48.353 C63.28,47.865 63,47.19 63,46.5 C63,45.8 63.272,45.142 63.768,44.646 L67.063,41.352 C68.245,40.169 69.149,38.708 69.678,37.127 L70.348,37.238 C72.91,37.665 75.147,39.188 76.484,41.417 C76.821,41.979 77,42.624 77,43.28 C77,44.594 76.286,45.808 75.137,46.447 L73.915,47.126 L74.886,48.874 L76.109,48.195 C76.263,48.109 76.405,48.009 76.549,47.91 C78.083,48.984 79,50.726 79,52.605 L79,56.021 Z" id="Shape" fill="#000000" fill-rule="nonzero"></path>
        <path d="M48.359,57.558 L49.557,54.362 C49.851,53.579 50,52.759 50,51.922 C50,49.14 48.348,46.633 45.789,45.536 C43.545,44.574 41.173,44.076 38.739,44.022 C38.515,43.358 38.157,42.743 37.647,42.233 L36.768,41.354 C35.908,40.493 34.717,40 33.5,40 L33,40 L33,36.333 L35.109,33.521 C35.544,32.941 35.829,32.256 35.943,31.542 L40.719,27.96 L44.311,29.158 C45.988,29.717 47.734,30 49.5,30 C51.43,30 53,28.43 53,26.5 C53,25.9 52.831,25.322 52.545,24.807 C52.723,24.728 52.907,24.664 53.081,24.577 C54.265,23.986 55,22.796 55,21.472 C55,19.558 53.442,18 51.528,18 L51.401,18 C51.027,18 50.658,18.06 50.302,18.178 L49.995,18.28 C49.971,16.468 48.494,15 46.676,15 C45.314,15 44.032,15.6 43.159,16.647 L39.478,21.064 C35.049,21.309 30.737,22.315 26.634,24.07 C25.083,24.297 23.655,25.126 22.704,26.394 C21.605,27.86 21,29.677 21,31.509 L21,32.404 C20.5,32.714 20.053,33.118 19.712,33.63 C19.246,34.329 19,35.141 19,35.98 L19,39.395 C19,41.809 20.127,44.05 22.022,45.51 C21.374,46.438 21,47.55 21,48.72 C21,49.741 21.277,50.741 21.802,51.613 C23.441,54.344 26.183,56.212 29.324,56.735 L30.618,56.951 C33.302,58.93 36.261,60.476 39.425,61.53 L39.783,61.65 C40.485,61.882 41.213,62 41.948,62 C44.785,62 47.361,60.215 48.359,57.558 Z M41.279,23.001 L41.823,24.632 L35.695,29.228 C35.368,28.389 34.789,27.657 34.016,27.142 L30.809,25.004 C30.684,24.921 30.55,24.857 30.42,24.784 C33.924,23.638 37.562,23.036 41.279,23.001 Z M51,26.5 C51,27.327 50.327,28 49.5,28 C47.949,28 46.417,27.751 44.944,27.261 L42.665,26.501 L43.334,26 L47.056,26 C48.257,26 49.453,25.818 50.612,25.501 C50.858,25.773 51,26.123 51,26.5 Z M50.936,20.076 C51.086,20.025 51.243,20 51.401,20 L51.528,20 C52.34,20 53,20.661 53,21.472 C53,22.033 52.688,22.537 52.187,22.788 C50.602,23.581 48.827,24 47.056,24 L43.721,24 L43.265,22.633 L50.936,20.076 Z M44.696,17.927 C45.188,17.338 45.909,17 46.676,17 C47.406,17 48,17.594 48,18.325 C48,18.455 47.98,18.584 47.954,18.675 L47.842,18.999 L42.25,20.862 L44.696,17.927 Z M23,31.509 C23,30.107 23.464,28.716 24.305,27.593 C25.054,26.596 26.244,26 27.491,26 C28.28,26 29.044,26.231 29.7,26.669 L32.907,28.807 C33.592,29.263 34,30.026 34,30.849 C34,31.377 33.826,31.9 33.51,32.321 L31.66,34.787 L24.809,32.047 C24.221,31.812 23.605,31.733 23,31.769 L23,31.509 Z M29.652,54.762 C27.09,54.335 24.853,52.812 23.516,50.582 C23.179,50.021 23,49.377 23,48.72 C23,47.406 23.714,46.192 24.864,45.553 L26.086,44.874 L25.113,43.126 L23.892,43.805 C23.738,43.891 23.596,43.991 23.452,44.09 C21.917,43.016 21,41.274 21,39.395 L21,35.98 C21,35.537 21.13,35.108 21.376,34.739 C21.959,33.864 23.09,33.511 24.066,33.904 L31,36.677 L31,40.105 C30.545,40.2 30.102,40.354 29.693,40.581 L28.513,41.237 L29.486,42.985 L30.665,42.329 C31.054,42.114 31.494,41.999 31.938,41.999 L33.5,41.999 C34.19,41.999 34.866,42.279 35.354,42.767 L36.233,43.646 C36.728,44.142 37,44.8 37,45.5 C37,46.19 36.72,46.866 36.232,47.354 L32.937,50.649 C31.756,51.83 30.852,53.291 30.322,54.874 L29.652,54.762 Z M41.948,60 C41.427,60 40.912,59.916 40.417,59.752 L40.06,59.633 C37.241,58.694 34.603,57.328 32.187,55.605 L32.214,55.524 C32.646,54.226 33.385,53.03 34.352,52.063 L37.647,48.768 C38.381,48.034 38.826,47.058 38.947,46.033 C41.036,46.111 43.072,46.548 45.001,47.375 C46.823,48.155 48,49.94 48,51.922 C48,52.518 47.894,53.102 47.685,53.659 L46.487,56.855 C45.78,58.736 43.957,60 41.948,60 Z" id="Shape" fill="#000000" fill-rule="nonzero"></path>
        <rect id="Rectangle-path" fill="#000000" fill-rule="nonzero" x="58" y="34" width="2" height="2"></rect>
        <rect id="Rectangle-path" fill="#000000" fill-rule="nonzero" x="67" y="45" width="2" height="2"></rect>
        <rect id="Rectangle-path" fill="#000000" fill-rule="nonzero" x="72" y="41" width="2" height="2"></rect>
        <rect id="Rectangle-path" fill="#000000" fill-rule="nonzero" x="70" y="61" width="2" height="2"></rect>
        <rect id="Rectangle-path" fill="#000000" fill-rule="nonzero" x="35" y="53" width="2" height="2"></rect>
        <rect id="Rectangle-path" fill="#000000" fill-rule="nonzero" x="44" y="51" width="2" height="2"></rect>
        <rect id="Rectangle-path" fill="#000000" fill-rule="nonzero" x="28" y="47" width="2" height="2"></rect>
        <rect id="Rectangle-path" fill="#000000" fill-rule="nonzero" x="35" y="25" width="2" height="2"></rect>
    </g>
</svg>