<?xml version="1.0" encoding="UTF-8"?>
<svg width="103px" height="88px" viewBox="0 0 103 88" version="1.1" xmlns="http://www.w3.org/2000/svg" xmlns:xlink="http://www.w3.org/1999/xlink">
    <!-- Generator: Sketch 49.2 (51160) - http://www.bohemiancoding.com/sketch -->
    <title>protein-tofu</title>
    <desc>Created with Sketch.</desc>
    <defs></defs>
    <g id="protein-tofu" stroke="none" stroke-width="1" fill="none" fill-rule="evenodd">
        <g id="Group" transform="translate(27.000000, 24.000000)">
            <path d="M22.0039062,1.50390625 C21.1843869,1.50390625 1.20214844,7.01391717 1.20214844,7.69506836 L2,37.7666667 C2,38.4478179 2.66435166,39 3.48387097,39 L32.5561523,39.2597656 C33.3756716,39.2597656 48,31.5612781 48,30.880127 L48,3.23333333 C48,2.55218214 47.3356483,2 46.516129,2 L22.0039062,1.50390625 Z" id="Path" fill="#FFFB76"></path>
            <path d="M5.5450774,7.16387397 L29.5088019,36.9247545 C30.3943366,38.0245123 31.9268928,38.3579228 33.1892777,37.7254489 L45.3438184,31.635841 C46.3589734,31.1272331 47,30.0890884 47,28.9536494 L47,3.61645508 C47,3.06417033 46.5522847,2.61645508 46,2.61645508 L21.1154416,2.61645508 C20.7216744,2.61645508 20.3300651,2.6745981 19.9532838,2.78900301 L5.5450774,7.16387397 Z M21.1154416,0.616455078 L46,0.616455078 C47.6568542,0.616455078 49,1.95960083 49,3.61645508 L49,28.9536494 C49,30.8460477 47.9316224,32.5762889 46.2396973,33.4239688 L34.0851567,39.5135767 C31.9811817,40.5676998 29.4269215,40.0120157 27.9510303,38.179086 L2.12939453,6.11083984 L19.372205,0.875276974 C19.9373769,0.703669614 20.5247908,0.616455078 21.1154416,0.616455078 Z" id="Path-Copy" fill="#000000" fill-rule="nonzero"></path>
            <path d="M33.2747211,7.96152395 C32.7436861,8.11324824 32.1902003,7.80575614 32.0384761,7.27472113 C31.8867518,6.74368612 32.1942439,6.19020034 32.7252789,6.03847605 L46.7252789,2.03847605 C47.2563139,1.88675176 47.8097997,2.19424386 47.9615239,2.72527887 C48.1132482,3.25631388 47.8057561,3.80979966 47.2747211,3.96152395 L33.2747211,7.96152395 Z" id="Line" fill="#000000" fill-rule="nonzero"></path>
            <path d="M3,8 C2.44771525,8 2,8.44771525 2,9 L2,37 C2,37.5522847 2.44771525,38 3,38 L32,38 C32.5522847,38 33,37.5522847 33,37 L33,9 C33,8.44771525 32.5522847,8 32,8 L3,8 Z M3,6 L32,6 C33.6568542,6 35,7.34314575 35,9 L35,37 C35,38.6568542 33.6568542,40 32,40 L3,40 C1.34314575,40 1.53517375e-15,38.6568542 1.33226763e-15,37 L0,9 C-2.02906125e-16,7.34314575 1.34314575,6 3,6 Z" id="Path" fill="#000000" fill-rule="nonzero"></path>
            <path d="M3,8 C2.44771525,8 2,8.44771525 2,9 L2,37 C2,37.5522847 2.44771525,38 3,38 L32,38 C32.5522847,38 33,37.5522847 33,37 L33,9 C33,8.44771525 32.5522847,8 32,8 L3,8 Z" id="Path" fill="#FFFB76"></path>
            <rect id="Rectangle-path" fill="#000000" fill-rule="nonzero" x="4" y="33" width="2" height="2"></rect>
            <rect id="Rectangle-path-Copy" fill="#000000" fill-rule="nonzero" x="11" y="33" width="2" height="2"></rect>
            <rect id="Rectangle-path-Copy-2" fill="#000000" fill-rule="nonzero" x="6" y="28" width="2" height="2"></rect>
        </g>
    </g>
</svg>