<?xml version="1.0" encoding="UTF-8"?>
<svg width="103px" height="88px" viewBox="0 0 103 88" version="1.1" xmlns="http://www.w3.org/2000/svg" xmlns:xlink="http://www.w3.org/1999/xlink">
    <!-- Generator: Sketch 49.2 (51160) - http://www.bohemiancoding.com/sketch -->
    <title>protein-beef</title>
    <desc>Created with Sketch.</desc>
    <defs></defs>
    <g id="protein-beef" stroke="none" stroke-width="1" fill="none" fill-rule="evenodd">
        <path d="M17.2490234,52.8876953 L17.2490234,40.3027344 L18.3740234,34.6591797 L22.4511719,30.4912109 L29.6757813,27.2104492 L38.3979492,25.5429688 C42.8527018,25.1513672 45.3919271,24.9555664 46.015625,24.9555664 C46.9511719,24.9555664 55.6557617,24.9555664 56.2895508,24.9555664 C56.9233398,24.9555664 64.3823242,26.0898438 64.8823242,26.0898438 C65.2156576,26.0898438 67.9480794,26.4633789 73.0795898,27.2104492 L78.6557617,30.4912109 L81.6831055,33.440918 L82.6074219,38.1054688 L82.6074219,40.3027344 L82.6074219,52.0209961 L80.6010742,56.8188477 L75.0385742,61.3583984 L66.7026367,64.2602539 C59.8325195,64.7485352 56.0345052,64.9926758 55.3085938,64.9926758 C54.2197266,64.9926758 47.3505859,62.9365234 46.015625,62.9365234 C45.125651,62.9365234 42.9469401,61.9855143 39.4794922,60.0834961 L31.5932617,59.5493164 L23.9169922,58.550293 L19.7504883,56.8188477 L17.2490234,52.8876953 Z" id="Path-10" fill="#FFFFFF"></path>
        <path d="M24.5703125,42.5185547 C22.9296875,41.3105469 22.109375,40.5284831 22.109375,40.1723633 C22.109375,39.8162435 22.5195312,38.2055664 23.3398438,35.340332 L27.253418,32.7495117 C32.6453451,31.2488607 35.3413086,30.4985352 35.3413086,30.4985352 C35.3413086,30.4985352 44.0698242,29.1298828 44.0698242,29.1298828 C44.0698242,29.1298828 50.0058594,29.1298828 50.8388672,29.1298828 C51.671875,29.1298828 61.0869141,29.1298828 61.0869141,29.1298828 C61.0869141,29.1298828 64.082194,29.9458008 70.0727539,31.5776367 C73.3696289,33.0512695 75.2478841,33.7880859 75.7075195,33.7880859 C76.1671549,33.7880859 77.0123698,34.9482422 78.2431641,37.2685547 L77.4584961,40.1723633 L74.9291992,43.746582 C71.3608398,45.7680664 69.3435872,46.7788086 68.8774414,46.7788086 C68.1782227,46.7788086 62.5078125,48.7211914 61.7973633,48.7211914 C61.0869141,48.7211914 55.6098633,48.1352539 54.9628906,48.1352539 C54.315918,48.1352539 47.7792969,47.6738281 47.2451172,46.7788086 C46.7109375,45.8837891 44.081543,44.3828125 43.5161133,44.3828125 C42.9506836,44.3828125 37.6733398,43.097168 37.128418,43.097168 C36.5834961,43.097168 32.4038086,43.097168 32.4038086,43.097168 C32.4038086,43.097168 30.3631185,43.3136393 26.2817383,43.746582 L24.5703125,42.5185547 Z" id="Path-4" fill="#F35A71"></path>
        <path d="M60.0649414,40.4677734 C60.0649414,40.4677734 56.8847656,39.8505859 56.3808594,39.8505859 C56.0449219,39.8505859 54.8629557,39.8505859 52.8349609,39.8505859 L52.8349609,38.0141602 L54.2963867,36.9936523 L60.0649414,36.9936523 L61.9311523,36.9936523 L63.3608398,34.3505859 L65.3374023,33.3588867 L66.7768555,35.6948242 L66.7768555,38.9360352 L64.4453125,42.9243164 L62.7807617,44.4765625 L61.2348633,43.6904297 L61.2348633,41.7373047 L61.2348633,40.4677734 C60.4549154,40.4677734 60.0649414,40.4677734 60.0649414,40.4677734 Z" id="Path" fill="#FFFFFF"></path>
        <path d="M83.5,37.2 C83,28.3 72.2,23.8 51.5,23.8 C21.1,23.8 16.5,33.7 16.5,39.5 L16.5,51.7 C16.5,57.5 21.6,60.5 31.8,60.5 C37,60.5 40,61.7 43.3,62.9 C46.9,64.3 50.7,65.7 57.5,65.7 C70.5,65.7 83.5,60.7 83.5,49.4 L83.5,38 C83.5,37.7 83.5,37.5 83.5,37.2 Z M51.5,25.8 C70.9,25.8 81,29.7 81.5,37.4 C81.7,40.2 80.7,42.8 78.7,44.9 C74.8,49.1 66.6,51.7 57.4,51.7 C50.9,51.7 47.4,50.3 43.9,49 C40.6,47.7 37.3,46.4 31.7,46.4 C18.4,46.4 18.4,41.3 18.4,39.6 C18.6,27.1 41.6,25.8 51.5,25.8 Z M57.5,63.8 C51,63.8 47.5,62.4 44,61.1 C40.7,59.8 37.4,58.5 31.8,58.5 C18.5,58.5 18.5,53.4 18.5,51.7 L18.5,44.7 C20.9,47.1 25.3,48.3 31.8,48.3 C37,48.3 40,49.5 43.3,50.7 C46.9,52.1 50.7,53.5 57.5,53.5 C67.4,53.5 75.9,50.7 80.2,46.1 C80.7,45.6 81.1,45 81.5,44.4 L81.5,49.4 C81.5,59.3 69.5,63.8 57.5,63.8 Z" id="Shape" fill="#000000" fill-rule="nonzero"></path>
        <path d="M30.3,44.1 L31.8,44.1 C38,44.1 41.8,45.4 44.8,46.5 C45.2,46.7 45.6,46.8 46.1,47 C48.9,48.1 52.2,49.4 57.5,49.4 C65.6,49.4 73.5,46.8 77.1,43 C78.6,41.4 79.3,39.5 79.2,37.4 C79.1,35.8 78.5,33.4 74,31.4 C68.9,29.1 61.1,27.8 51.6,27.8 C29.1,27.8 22.5,32.7 21,36.8 C20.1,39.2 20.9,41.4 21.8,42.2 C23.8,44.2 25.7,44.1 30.3,44.1 Z M22.8,37.6 C23.7,35.3 28.2,29.9 51.5,29.9 C60.6,29.9 68.3,31.1 73,33.3 C76.9,35.1 77,36.9 77.1,37.6 C77.2,39.2 76.7,40.5 75.6,41.7 C72.4,45.1 65,47.5 57.5,47.5 C52.6,47.5 49.7,46.3 46.9,45.2 C46.5,45 46,44.9 45.6,44.7 C42.4,43.5 38.4,42.1 31.8,42.1 L30.3,42.1 C25.9,42.1 24.5,42.1 23.1,40.8 C22.8,40.6 22.2,39.3 22.8,37.6 Z" id="Shape" fill="#000000" fill-rule="nonzero"></path>
        <path d="M53.5,41 L60.7,41.1 C60.8,41.1 60.8,41.1 60.8,41.1 C60.8,41.1 60.8,41.2 60.8,41.3 L60.5,42.5 C60.3,43.2 60.5,43.8 60.9,44.3 C61.3,44.8 61.9,45.1 62.6,45.1 C63.3,45.1 64,44.8 64.5,44.3 C68.5,40.2 67.6,35.5 67,33.7 C66.7,32.9 66,32.3 65,32.3 C63.8,32.3 62.7,33.2 62.4,34.4 L62.2,35.4 C62.1,35.7 61.7,36 61.4,36 L54.2,36 C52.8,36 51.6,37 51.3,38.3 C51.1,39.1 51.2,39.8 51.6,40.3 C52.1,40.8 52.7,41 53.5,41 Z M53.3,38.7 C53.4,38.3 53.8,38 54.2,38 L61.3,38.1 C62.5,38.1 63.7,37.2 64,35.9 L64.2,34.9 C64.3,34.6 64.6,34.3 64.9,34.3 L65,34.3 C65.5,35.8 66.3,39.6 63,42.9 C62.9,43 62.7,43.1 62.5,43.1 L62.3,43.1 L62.3,43 L62.6,41.8 C62.8,41.1 62.6,40.4 62.2,39.9 C61.8,39.4 61.2,39.1 60.5,39.1 L53.5,39 C53.4,39 53.3,39 53.2,39 C53.3,39 53.3,38.9 53.3,38.7 Z" id="Shape" fill="#000000" fill-rule="nonzero"></path>
    </g>
</svg>