<?xml version="1.0" encoding="UTF-8"?>
<svg width="103px" height="88px" viewBox="0 0 103 88" version="1.1" xmlns="http://www.w3.org/2000/svg" xmlns:xlink="http://www.w3.org/1999/xlink">
    <!-- Generator: Sketch 49.2 (51160) - http://www.bohemiancoding.com/sketch -->
    <title>protein-chicken</title>
    <desc>Created with Sketch.</desc>
    <defs></defs>
    <g id="protein-chicken" stroke="none" stroke-width="1" fill="none" fill-rule="evenodd">
        <path d="M31.4179688,54 C32.9332682,54.7255859 34.0486654,55.0883789 34.7641602,55.0883789 C35.4796549,55.0883789 37.012207,54.7255859 39.3618164,54 L39.3618164,62.8444315 L42.3793945,63.8544922 L44.7358398,65.5585938 L45.6313477,69.6923828 L43.6625977,73.2460938 L40.8217773,74.6484375 L38.5246582,74.6484375 L35.4467773,73.2460938 L32.5395508,74.6484375 L29.4213867,74.6484375 C27.824707,73.7636719 27.0263672,73.1004232 27.0263672,72.6586914 C27.0263672,71.9960938 26,69.6923828 26,69.6923828 C26,69.6923828 26,68.3759766 26,67.3989258 C26,66.7475586 26.5696615,65.7226562 27.7089844,64.3242188 L31.4179688,62.8444315 L31.4179688,54 Z" id="Path-9" fill="#FFFFFF"></path>
        <path d="M63.4179688,54 C65.6342773,53.3805339 67.100179,53.0708008 67.8156738,53.0708008 C68.5311686,53.0708008 69.7132161,53.3805339 71.3618164,54 L71.3618164,62.8444315 L74.3793945,63.8544922 L76.7358398,65.5585938 L77.6313477,69.6923828 L75.6625977,73.2460938 L72.8217773,74.6484375 L70.5246582,74.6484375 L67.4467773,73.2460938 L64.5395508,74.6484375 L61.4213867,74.6484375 C59.824707,73.7636719 59.0263672,73.1004232 59.0263672,72.6586914 C59.0263672,71.9960938 58,69.6923828 58,69.6923828 C58,69.6923828 58,68.3759766 58,67.3989258 C58,66.7475586 58.5696615,65.7226562 59.7089844,64.3242188 L63.4179688,62.8444315 L63.4179688,54 Z" id="Path-9-Copy" fill="#FFFFFF"></path>
        <path d="M35.3706055,55.2397461 L39.4291992,53.5229492 C41.9698893,51.0519206 43.2402344,49.5594076 43.2402344,49.0454102 C43.2402344,48.5314128 43.8823242,47.0512695 45.1665039,44.6049805 L45.1665039,41.6552734 L47.1494141,36.6123047 L48.1977539,30.5004883 L46.4213867,22.7246094 L43.2402344,18.2509766 L39.4291992,15.7607422 L35.871582,15.0112305 L30.9921875,15.7607422 L26.4433594,18.2509766 L23.0678711,24.8974609 L22.0673828,29.1142578 L22.0673828,35.1254883 L24.6860352,39.7456055 L25.434082,42.5556641 L25.434082,47.0449219 L28.4233398,51.6337891 L31.9990234,54.5771484 L35.3706055,55.2397461 Z" id="Path-5" fill="#FEA815"></path>
        <polygon id="Path-6" fill="#FEA815" points="63.0444336 53.0893555 73.5083008 53.0893555 76.1157227 48.0400391 80.3769531 35.0625 82.5400391 29.4262695 81.1572266 22.5966797 77.3188477 18.284668 72.7922363 15.8793945 68.0268555 15.1401367 62.1333008 15.8793945 57.5087891 19.0541992 54.1254883 26.4506836 54.9750977 32.9169922 58.2353516 43.3422852"></polygon>
        <path d="M74.7,54 L82.12,33.594 C82.704,31.99 83,30.312 83,28.604 C83,20.551 76.449,14 68.396,14 L67.603,14 C59.551,14 53,20.551 53,28.604 C53,30.312 53.296,31.991 53.88,33.594 L61.3,54 L63,54 L63,62.071 C59.612,62.557 57,65.479 57,69 C57,72.859 60.141,76 64,76 C65.437,76 66.829,75.557 68,74.737 C69.171,75.557 70.563,76 72,76 C75.859,76 79,72.859 79,69 C79,65.479 76.388,62.558 73,62.071 L73,54 L74.7,54 Z M55.759,32.91 C55.256,31.526 55,30.077 55,28.604 C55,21.654 60.654,16 67.604,16 L68.397,16 C75.346,16 81,21.654 81,28.604 C81,30.078 80.744,31.527 80.241,32.911 L73.3,52 L62.7,52 L55.759,32.91 Z M72,64 C74.757,64 77,66.243 77,69 C77,71.757 74.757,74 72,74 C70.772,74 69.589,73.545 68.668,72.719 L68,72.119 L67.332,72.719 C66.411,73.545 65.228,74 64,74 C61.243,74 59,71.757 59,69 C59,66.243 61.243,64 64,64 L65,64 L65,54 L71,54 L71,64 L72,64 Z" id="Shape" fill="#000000" fill-rule="nonzero"></path>
        <g id="Group" transform="translate(27.000000, 18.000000)" fill="#000000" fill-rule="nonzero">
            <rect id="Rectangle-path" x="44" y="5" width="2" height="2"></rect>
            <rect id="Rectangle-path" x="32" y="12" width="2" height="2"></rect>
            <rect id="Rectangle-path" x="38" y="17" width="2" height="2"></rect>
            <rect id="Rectangle-path" x="40" y="24" width="2" height="2"></rect>
            <rect id="Rectangle-path" x="47" y="19" width="2" height="2"></rect>
            <rect id="Rectangle-path" x="34" y="4" width="2" height="2"></rect>
            <rect id="Rectangle-path" x="39" y="9" width="2" height="2"></rect>
            <rect id="Rectangle-path" x="39" y="0" width="2" height="2"></rect>
            <rect id="Rectangle-path" x="48" y="12" width="2" height="2"></rect>
            <rect id="Rectangle-path" x="34" y="22" width="2" height="2"></rect>
            <rect id="Rectangle-path" x="37" y="30" width="2" height="2"></rect>
            <rect id="Rectangle-path" x="43" y="28" width="2" height="2"></rect>
            <rect id="Rectangle-path" x="12" y="5" width="2" height="2"></rect>
            <rect id="Rectangle-path" x="0" y="12" width="2" height="2"></rect>
            <rect id="Rectangle-path" x="6" y="17" width="2" height="2"></rect>
            <rect id="Rectangle-path" x="8" y="25" width="2" height="2"></rect>
            <rect id="Rectangle-path" x="13" y="19" width="2" height="2"></rect>
            <rect id="Rectangle-path" x="2" y="4" width="2" height="2"></rect>
            <rect id="Rectangle-path" x="7" y="9" width="2" height="2"></rect>
            <rect id="Rectangle-path" x="7" y="0" width="2" height="2"></rect>
            <rect id="Rectangle-path" x="16" y="12" width="2" height="2"></rect>
            <rect id="Rectangle-path" x="2" y="22" width="2" height="2"></rect>
            <rect id="Rectangle-path" x="5" y="31" width="2" height="2"></rect>
        </g>
        <path d="M35,14 C27.28,14 21,21.626 21,31 C21,34.821 22.068,38.548 24.014,41.537 C24.006,41.69 24,41.845 24,42 C24,47.427 26.444,52.132 30,54.455 L30,62.072 C26.612,62.558 24,65.479 24,69 C24,72.859 27.141,76 31,76 C32.437,76 33.829,75.557 35,74.737 C36.171,75.557 37.563,76 39,76 C42.859,76 46,72.859 46,69 C46,65.479 43.388,62.558 40,62.071 L40,54.454 C43.556,52.132 46,47.427 46,41.999 C46,41.844 45.994,41.689 45.986,41.536 C47.932,38.548 49,34.821 49,31 C49,21.626 42.72,14 35,14 Z M39,64 C41.757,64 44,66.243 44,69 C44,71.757 41.757,74 39,74 C37.772,74 36.589,73.545 35.668,72.719 L35,72.119 L34.332,72.719 C33.411,73.545 32.228,74 31,74 C28.243,74 26,71.757 26,69 C26,66.243 28.243,64 31,64 L32,64 L32,55.457 C32.955,55.803 33.959,56 35,56 C36.041,56 37.045,55.803 38,55.457 L38,64 L39,64 Z M44.144,40.696 L43.956,40.972 L43.981,41.497 C43.99,41.665 44,41.831 44,42 C44,48.617 39.963,54 35,54 C30.037,54 26,48.617 26,42 C26,41.831 26.01,41.665 26.019,41.498 L26.044,40.973 L25.856,40.697 C24.015,37.989 23,34.546 23,31 C23,22.729 28.383,16 35,16 C41.617,16 47,22.729 47,31 C47,34.546 45.985,37.989 44.144,40.696 Z" id="Shape" fill="#000000" fill-rule="nonzero"></path>
    </g>
</svg>