<?xml version="1.0" encoding="UTF-8"?>
<svg width="103px" height="88px" viewBox="0 0 103 88" version="1.1" xmlns="http://www.w3.org/2000/svg" xmlns:xlink="http://www.w3.org/1999/xlink">
    <!-- Generator: Sketch 49.2 (51160) - http://www.bohemiancoding.com/sketch -->
    <title>protein-salmon</title>
    <desc>Created with Sketch.</desc>
    <defs></defs>
    <g id="protein-salmon" stroke="none" stroke-width="1" fill="none" fill-rule="evenodd">
        <path d="M19,47 L19,52.6363518 C19,56.3306355 20.7651372,59.8025589 23.75,61.9793287 L27.1030687,64.4246504 C27.9065587,65.0106112 29.018514,64.9172269 29.7130183,64.2054615 C35.2376728,58.5434976 38,55.3610625 38,54.6581564 C38,53.5292648 32.1667012,48.7511226 30.3333506,48.7511226 C29.1111169,48.7511226 25.3333333,48.167415 19,47 Z" id="Path-8" stroke="#000000" stroke-width="2" fill="#F35A71"></path>
        <path d="M26.8613281,58.3535156 L26.8613281,62.6681542 C26.8613281,63.7727237 27.7567586,64.6681542 28.8613281,64.6681542 C29.0992647,64.6681542 29.3352922,64.6256965 29.5583129,64.5427774 L81.5530089,45.2111524 C83.5113923,44.4830256 84.8105469,42.6139566 84.8105469,40.5245944 L84.8105469,35.8515625 L75.0732422,36.5322266 C71.5921224,35.539388 69.4303385,35.0429688 68.5878906,35.0429688 C67.3242188,35.0429688 63.2216797,35.0429688 59.0214844,35.0429688 C54.8212891,35.0429688 37.2431641,38.96875 33.8681641,41.1054688 C31.6181641,42.5299479 29.2825521,46.8391927 26.8613281,54.0332031 L26.8613281,58.3535156 Z" id="Path-7" stroke="#000000" stroke-width="2" fill="#F35A71" stroke-linecap="round"></path>
        <path d="M25.7598101,57.8092092 C24.5673653,57.4487842 23.5766345,56.6158646 23.0204967,55.5062348 L19.4867824,48.6245656 C18.4245242,46.6024305 19.1559382,44.1065908 21.144067,42.9693326 L22.3904546,42.3016063 C28.3002024,39.0956605 33.8157699,35.2177705 38.8263351,30.7458531 L44.3049619,25.8809899 C49.664467,20.9841446 57.0781415,18.9775729 64.1923773,20.4982983 L75.9029421,23.0329328 C78.2816968,23.5867566 80.2894698,25.1648488 81.381569,27.3390862 L84.6687451,33.7301808 C85.1981139,34.764174 85.0863682,36.0083164 84.3811172,36.9325417 C83.7426221,37.7704362 82.6766159,38.1681602 81.6418037,37.9545718 L69.9312389,35.4199372 C63.677402,34.087989 57.1626717,35.855718 52.4544193,40.1621567 L46.9757925,45.0270198 C41.8058675,49.6363858 36.1156767,53.6331479 30.0194424,56.9370768 L29.0606828,57.4549054 C28.4408491,57.8009775 27.7442568,57.9882904 27.0335908,57.9999881 C26.6017318,58.0010059 26.1722284,57.9366776 25.7598101,57.8092092 Z" id="Shape" stroke="#000000" stroke-width="2" fill="#F35A71" fill-rule="nonzero"></path>
        <path d="M25,42 L31,56" id="Line" stroke="#000000" stroke-width="2" stroke-linecap="square"></path>
        <path d="M32,37 L39,51" id="Line-Copy" stroke="#000000" stroke-width="2" stroke-linecap="square"></path>
        <path d="M40,31 L46,45" id="Line-Copy-2" stroke="#000000" stroke-width="2" stroke-linecap="square"></path>
        <path d="M47,25 L53,39" id="Line-Copy-3" stroke="#000000" stroke-width="2" stroke-linecap="square"></path>
        <path d="M55,22 L60,35" id="Line-Copy-4" stroke="#000000" stroke-width="2" stroke-linecap="square"></path>
        <path d="M63.5,21 L69,35" id="Line-Copy-5" stroke="#000000" stroke-width="2" stroke-linecap="square"></path>
        <path d="M72,23 L77,36" id="Line-Copy-6" stroke="#000000" stroke-width="2" stroke-linecap="square"></path>
    </g>
</svg>