<?xml version="1.0" encoding="UTF-8"?>
<svg width="103px" height="88px" viewBox="0 0 103 88" version="1.1" xmlns="http://www.w3.org/2000/svg" xmlns:xlink="http://www.w3.org/1999/xlink">
    <!-- Generator: Sketch 49.2 (51160) - http://www.bohemiancoding.com/sketch -->
    <title>veg-carrot</title>
    <desc>Created with Sketch.</desc>
    <defs>
        <path d="M38.6545853,0.267443484 L38.6545853,0.267443484 C42.999692,0.267443484 46.5220969,3.7898484 46.5220969,8.13495507 C46.5220969,8.43284061 46.5051788,8.73048574 46.4714242,9.02645266 L41.5990073,51.7488316 C41.4282694,53.245898 40.1613564,54.3765344 38.6545853,54.3765344 L38.6545853,54.3765344 C37.1478142,54.3765344 35.8809013,53.245898 35.7101633,51.7488316 L30.8377464,9.02645266 C30.3453859,4.70933174 33.4459668,0.810476682 37.7630877,0.318116156 C38.0590547,0.284361616 38.3566998,0.267443484 38.6545853,0.267443484 Z" id="path-1"></path>
        <path d="M38.6545853,0.267443484 L38.6545853,0.267443484 C42.999692,0.267443484 46.5220969,3.7898484 46.5220969,8.13495507 C46.5220969,8.43284061 46.5051788,8.73048574 46.4714242,9.02645266 L41.5990073,51.7488316 C41.4282694,53.245898 40.1613564,54.3765344 38.6545853,54.3765344 L38.6545853,54.3765344 C37.1478142,54.3765344 35.8809013,53.245898 35.7101633,51.7488316 L30.8377464,9.02645266 C30.3453859,4.70933174 33.4459668,0.810476682 37.7630877,0.318116156 C38.0590547,0.284361616 38.3566998,0.267443484 38.6545853,0.267443484 Z" id="path-2"></path>
    </defs>
    <g id="veg-carrot" stroke="none" stroke-width="1" fill="none" fill-rule="evenodd">
        <g id="Group-2" transform="translate(10.000000, 16.000000)">
            <g id="Group-Copy" transform="translate(46.621869, 32.007454) rotate(7.000000) translate(-46.621869, -32.007454) translate(13.121869, 8.007454)">
                <path d="M13.8890196,3.93006077 C16.1236803,0.30948329 18.6170901,-1.9307258 19.8936046,-1.28030919 C21.4119591,-0.506668917 20.6336807,4.06366531 18.1552711,8.92781802 C16.8973926,11.3965437 15.4433304,13.4664826 14.1177388,14.8053655 C13.692975,19.8805077 12.5511601,23.5147744 11.2092765,23.5147744 C9.50518738,23.5147744 8.12375019,17.6537747 8.12375019,10.4238653 C8.12375019,3.19395583 9.50518738,-2.66704381 11.2092765,-2.66704381 C12.3563748,-2.66704381 13.3572719,-0.0112867048 13.8890196,3.93006077 Z" id="Combined-Shape" stroke="#000000" stroke-width="2" fill="#1AB220" transform="translate(14.396642, 10.423865) rotate(-75.000000) translate(-14.396642, -10.423865) "></path>
                <g id="Rectangle-4" transform="translate(38.654224, 27.321989) rotate(-60.000000) translate(-38.654224, -27.321989) ">
                    <use fill="#FEA815" fill-rule="evenodd" xlink:href="#path-1"></use>
                    <path stroke="#000000" stroke-width="2" d="M38.6545853,1.26744348 C38.3945625,1.26744348 38.1347496,1.28221124 37.8764015,1.31167541 C34.1080082,1.74145445 31.4015266,5.14474557 31.8313057,8.91313887 L36.7037226,51.6355178 C36.8168471,52.6274174 37.6562557,53.3765344 38.6545853,53.3765344 C39.6529149,53.3765344 40.4923236,52.6274174 40.6054481,51.6355178 L45.477865,8.91313887 C45.5073291,8.65479081 45.5220969,8.39497787 45.5220969,8.13495507 C45.5220969,4.34213315 42.4474072,1.26744348 38.6545853,1.26744348 Z"></path>
                </g>
                <path d="M28.6513158,14.5272727 L23.3618421,21.5090909" id="Line" stroke="#000000" stroke-width="2" stroke-linecap="square"></path>
                <path d="M36.5855263,20.6363636 L31.2960526,27.6181818" id="Line-Copy" stroke="#000000" stroke-width="2" stroke-linecap="square"></path>
                <path d="M44.5197368,26.7454545 L42.3157895,29.8" id="Line-Copy-2" stroke="#000000" stroke-width="2" stroke-linecap="square"></path>
                <path d="M48.9276316,32.8545455 L46.7236842,35.9090909" id="Line-Copy-3" stroke="#000000" stroke-width="2" stroke-linecap="square"></path>
            </g>
            <g id="Group" transform="translate(41.093263, 36.086455) rotate(-24.000000) translate(-41.093263, -36.086455) translate(7.593263, 12.086455)">
                <path d="M13.8890196,3.93006077 C16.1236803,0.30948329 18.6170901,-1.9307258 19.8936046,-1.28030919 C21.4119591,-0.506668917 20.6336807,4.06366531 18.1552711,8.92781802 C16.8973926,11.3965437 15.4433304,13.4664826 14.1177388,14.8053655 C13.692975,19.8805077 12.5511601,23.5147744 11.2092765,23.5147744 C9.50518738,23.5147744 8.12375019,17.6537747 8.12375019,10.4238653 C8.12375019,3.19395583 9.50518738,-2.66704381 11.2092765,-2.66704381 C12.3563748,-2.66704381 13.3572719,-0.0112867048 13.8890196,3.93006077 Z" id="Combined-Shape" stroke="#000000" stroke-width="2" fill="#1AB220" transform="translate(14.396642, 10.423865) rotate(-75.000000) translate(-14.396642, -10.423865) "></path>
                <g id="Rectangle-4" transform="translate(38.654224, 27.321989) rotate(-60.000000) translate(-38.654224, -27.321989) ">
                    <use fill="#FEA815" fill-rule="evenodd" xlink:href="#path-2"></use>
                    <path stroke="#000000" stroke-width="2" d="M38.6545853,1.26744348 C38.3945625,1.26744348 38.1347496,1.28221124 37.8764015,1.31167541 C34.1080082,1.74145445 31.4015266,5.14474557 31.8313057,8.91313887 L36.7037226,51.6355178 C36.8168471,52.6274174 37.6562557,53.3765344 38.6545853,53.3765344 C39.6529149,53.3765344 40.4923236,52.6274174 40.6054481,51.6355178 L45.477865,8.91313887 C45.5073291,8.65479081 45.5220969,8.39497787 45.5220969,8.13495507 C45.5220969,4.34213315 42.4474072,1.26744348 38.6545853,1.26744348 Z"></path>
                </g>
                <path d="M28.6513158,14.5272727 L23.3618421,21.5090909" id="Line" stroke="#000000" stroke-width="2" stroke-linecap="square"></path>
                <path d="M36.5855263,20.6363636 L31.2960526,27.6181818" id="Line-Copy" stroke="#000000" stroke-width="2" stroke-linecap="square"></path>
                <path d="M44.5197368,26.7454545 L42.3157895,29.8" id="Line-Copy-2" stroke="#000000" stroke-width="2" stroke-linecap="square"></path>
                <path d="M48.9276316,32.8545455 L46.7236842,35.9090909" id="Line-Copy-3" stroke="#000000" stroke-width="2" stroke-linecap="square"></path>
            </g>
        </g>
    </g>
</svg>