<?xml version="1.0" encoding="UTF-8"?>
<svg width="103px" height="88px" viewBox="0 0 103 88" version="1.1" xmlns="http://www.w3.org/2000/svg" xmlns:xlink="http://www.w3.org/1999/xlink">
    <!-- Generator: Sketch 49.2 (51160) - http://www.bohemiancoding.com/sketch -->
    <title>veg-sprouts</title>
    <desc>Created with Sketch.</desc>
    <defs></defs>
    <g id="veg-sprouts" stroke="none" stroke-width="1" fill="none" fill-rule="evenodd">
        <g id="Group" transform="translate(35.000000, 30.000000)">
            <path d="M26.1995221,2.73510406 C23.6514339,1.67107068 20.8272511,2.29151294 18.736969,3.10780315 C16.7472371,1.17730903 14.133875,0 11.2711235,0 C7.49411868,0 4.4277585,3.00453545 2.93612585,4.79575412 C1.41104619,6.62687401 0,8.8068359 0,12.3278404 C0,16.8220748 1.71301009,20.6591014 4.69941099,22.8551597 C5.00430149,23.0794638 5.31222313,23.3206482 5.62510954,23.5655692 C6.72567332,24.4274832 7.93007964,25.3681546 9.33961028,25.8558278 C9.36161214,26.6471896 9.56710229,28.2260196 10.8808386,27.9445159 C11.9843289,27.708035 13.5174046,26.2771558 14.4931691,25.2604709 C14.609502,25.2023566 14.7229606,25.1381802 14.8379348,25.0769565 C14.8399207,25.0787333 14.8416976,25.0806931 14.8436835,25.0824439 C14.5684772,25.7966684 14.1636637,27.2817423 15.4405038,27.5199739 C16.5130034,27.7201335 18.413944,27.0147149 19.6631902,26.4712269 C20.8059286,26.39375 21.9647633,26.1783303 22.9440294,25.9960179 C23.3053095,25.9287841 23.6423928,25.8659926 23.9434682,25.8168673 C28.2295995,25.1187914 30.7691691,20.0705384 31.6621,17.9323069 C34.1945621,11.8679961 31.7441497,5.05052636 26.1995221,2.73510406 Z" id="Path" fill="#000000"></path>
            <path d="M25.6271599,4.10572642 C26.8874332,4.63199438 27.9586786,5.43352089 28.8160198,6.42282106 C27.7691803,7.12128892 27.3081862,7.05282705 24.2098946,6.42875269 C23.5215131,6.29005208 22.716067,6.12778177 21.7608933,5.94779497 C20.647003,5.73773201 19.6272347,5.81317072 18.7091139,6.15764888 C18.3995199,5.73830685 18.0633773,5.42137019 17.7401955,5.18666616 C19.5266845,4.26567113 22.8545586,2.94791072 25.6271599,4.10572642 Z" id="Path" fill="#1AB220"></path>
            <path d="M14.458102,12.8187538 C13.7731697,13.2510043 13.0878194,14.0025693 12.4069112,15.0712278 C12.2153224,15.3719636 12.0390462,15.675234 11.8783437,15.9681306 C11.7369255,14.1212017 12.0836771,12.1130217 12.9216295,10.1064095 C13.7319358,8.1660903 14.851,6.9823793 16.2511759,6.05069684 C16.5213128,6.14957459 16.9754607,6.38017614 17.3983042,6.88977286 C14.9620023,8.76816279 14.4702788,12.4815922 14.4505242,12.641145 C14.4429463,12.7020551 14.4512036,12.7603783 14.458102,12.8187538 Z" id="Path" fill="#1AB220"></path>
            <path d="M16.5531398,3.26999511 C16.7784891,3.43203025 16.9920797,3.61149444 17.2035798,3.79362391 C17.1273834,3.83203573 17.048417,3.87107467 16.9768718,3.90836288 C14.9340949,4.9739902 12.8626791,6.39313684 11.5510333,9.53404735 C11.3785721,9.94717031 11.229576,10.3607114 11.0946905,10.7737821 L10.8039104,10.5101255 C10.5708788,9.93904379 10.3103578,8.95230439 10.9692119,8.3811181 C11.2894671,8.10316811 11.3240116,7.61802952 11.0460877,7.297513 C10.7684775,6.9768397 10.2834957,6.94211225 9.96240426,7.22024514 C8.49449813,8.49293043 9.00289285,10.4683167 9.59783173,11.5660584 C8.6302721,12.4720024 7.65874066,13.0087747 5.91912973,13.1661587 C5.73281935,13.1830651 5.55471397,13.2202749 5.38444772,13.2771087 C5.18784196,12.2928779 4.85828427,9.87570346 5.90862524,8.14218093 C5.9927654,8.00332354 6.08589446,7.87450026 6.18393603,7.75085078 C6.18696718,7.74714025 6.19104354,7.74465787 6.19407465,7.74086895 C6.19606057,7.73838657 6.1972103,7.7355122 6.19914395,7.73297755 C6.76800464,7.02481525 7.56754522,6.56484034 8.63393032,6.33844582 C9.61068784,6.13102201 10.4380835,5.96598189 11.1446519,5.82513857 C14.5125057,5.15361113 15.4247209,4.96761435 16.5531398,3.26999511 Z" id="Path" fill="#1AB220"></path>
            <path d="M11.2711235,1.53634192 C12.6838421,1.53634192 14.0259038,1.87433973 15.2385673,2.47690872 C14.5174704,3.5607751 14.0502574,3.67922461 10.8442559,4.31845466 C10.1323569,4.46042158 9.29858537,4.62658536 8.31513844,4.83549856 C7.16821917,5.07911309 6.22501317,5.55748388 5.48599078,6.25221509 C5.02342895,5.97533648 4.57617953,5.8068471 4.17418816,5.7116015 C5.5121736,4.12069917 8.16332039,1.53634192 11.2711235,1.53634192 Z" id="Path" fill="#1AB220"></path>
            <path d="M3.02392427,17.2717544 C2.96089754,17.6352033 2.9135491,17.9949417 2.87686189,18.3386098 C2.00577601,16.6321324 1.536368,14.5771265 1.536368,12.3278404 C1.536368,10.1527127 2.13240436,8.57683539 3.09740317,7.12959842 C3.39455905,7.11629801 3.91999084,7.15551988 4.5266362,7.47342336 C2.95034079,10.2373232 3.96075443,13.977275 4.00548978,14.1376117 C4.02263139,14.1988877 4.05367438,14.25141 4.0836722,14.3044287 C3.60224414,14.9900926 3.24781027,15.9805426 3.02392427,17.2717544 Z" id="Path" fill="#1AB220"></path>
            <path d="M6.57213062,22.3559629 C6.24696285,22.101269 5.92660311,21.8507038 5.60937902,21.617437 C5.13328159,21.2673669 4.69543917,20.8663684 4.29642663,20.4214969 C4.28383176,18.0861109 4.81140625,14.8093481 6.05788266,14.6964905 C8.17790119,14.5043792 9.43059666,13.804239 10.5934032,12.7326278 C10.1623025,15.0716198 10.3466269,17.3304696 11.1407847,19.2980428 C10.4251229,20.001371 9.23597678,21.4877775 9.779909,23.2151855 C9.8660351,23.4894511 10.1193963,23.6646299 10.3924076,23.6646299 C10.4559569,23.6646299 10.5211786,23.6550139 10.5851461,23.6349457 C10.9233791,23.5283333 11.1115186,23.1679416 11.0049062,22.8297086 C10.7284456,21.9512017 11.2573789,21.0942002 11.7425175,20.5335967 C11.7697978,20.5808407 11.7937856,20.6299398 11.8219019,20.6767396 C12.0104073,20.9904622 12.1947317,21.3197324 12.3825576,21.6547775 C12.7983982,22.3967265 13.2396898,23.1815818 13.7775597,23.9010586 C12.8969624,24.3403904 12.0215911,24.6555502 11.2711236,24.6555502 C9.50857003,24.6555501 8.01578767,23.4864461 6.57213062,22.3559629 Z" id="Path" fill="#1AB220"></path>
            <path d="M18.7338856,21.456029 C18.471222,20.8390099 18.5416175,20.0380582 18.9435043,19.0756986 C19.1015415,18.6972246 18.9228612,18.2622566 18.5443873,18.1042194 C18.1659133,17.9461561 17.7309453,18.1248886 17.5728559,18.5033364 C17.0043088,19.8648915 16.939871,21.0656396 17.3819988,22.0715849 C17.8201025,23.0694036 18.6146783,23.5516156 18.9921593,23.7332747 C18.223714,24.4321868 17.5815311,24.7415718 17.5011538,24.7786509 C17.4561048,24.7991373 17.414296,24.8239351 17.3754662,24.8517379 C17.2497262,24.817115 17.1275924,24.7786509 17.0140815,24.7312241 C15.4413399,24.0744866 14.5450643,22.4753009 13.678107,20.9284546 C13.4829123,20.5800829 13.29101,20.237852 13.0948223,19.9114822 C12.8004885,19.4218492 12.5591996,18.9009119 12.3689174,18.3553596 C13.2294988,16.26756 14.9218658,13.5411312 16.073384,13.9041882 C18.3677974,14.6271664 19.8641858,14.2893515 21.5889546,13.5470628 C22.4348507,18.0794478 21.2876701,20.9364244 19.994002,22.6356376 C19.9166558,22.5461668 19.8203911,22.4715904 19.7048421,22.4254179 C19.6783981,22.4190941 19.0328706,22.1581551 18.7338856,21.456029 Z" id="Path" fill="#1AB220"></path>
            <path d="M30.2915038,17.3599709 C28.631016,21.3362468 26.1685836,23.9496351 23.7044265,24.3510516 C23.3936828,24.4016663 23.0455202,24.4665222 22.6719588,24.5357157 C21.8108025,24.696183 20.7966261,24.8840351 19.8175691,24.9704747 C20.3397608,24.5147852 20.9170877,23.9120071 21.4525013,23.1328222 C21.7062806,22.7634416 21.959485,22.3387167 22.1948684,21.8570535 C23.8913641,22.0779868 27.4259826,21.4552451 28.839067,17.5171719 C28.9774017,17.1312769 28.7746292,16.7096354 28.3911904,16.567381 C28.0049296,16.4288894 27.5796821,16.6295193 27.4412428,17.0155711 C26.3346167,20.0989683 23.7770693,20.4075432 22.7744949,20.4041985 C23.3696428,18.5437341 23.6186663,16.0762324 22.9720413,12.9081462 C22.9747066,12.9068397 22.9774765,12.9055332 22.9801941,12.9042528 C24.9444749,11.9561604 25.9401509,11.5620343 27.1063545,12.9401038 C28.5672054,14.6656043 29.9951842,14.9361332 31.0267112,14.804122 C30.885502,15.6599215 30.6431156,16.5179421 30.2915038,17.3599709 Z" id="Path" fill="#1AB220"></path>
            <path d="M28.2396858,11.9802004 C26.2774431,9.66276608 24.182928,10.6743817 22.3346665,11.5666071 C22.1813328,11.6406609 22.0260654,11.7151589 21.8698574,11.7888208 C21.8953084,11.1902759 22.0671948,10.3438049 22.8074192,10.0995894 C23.197077,9.97110579 23.4085248,9.55129342 23.280381,9.16179243 C23.1519235,8.77213465 22.7317453,8.56052998 22.342401,8.68917033 C20.5582115,9.27739368 20.2756365,11.2288967 20.3977181,12.4300367 C19.1966042,12.877861 18.129801,12.9949256 16.5195882,12.4875761 C16.3471792,12.4332247 16.1743522,12.4000128 16.0013161,12.3872089 C16.1925391,11.4358763 16.7990799,9.15651407 18.3820647,8.00125918 C18.5091634,7.90852207 18.6405997,7.82819699 18.77444,7.75429995 C18.7783073,7.75231402 18.7823837,7.75160851 18.786251,7.7495442 C18.7887596,7.74818542 18.7906409,7.74622561 18.7930972,7.74484072 C19.5646782,7.32468864 20.4494041,7.21201398 21.4854256,7.40739164 C22.4340145,7.58620256 23.2336596,7.74724471 23.916606,7.88484788 C27.1713147,8.54043561 28.0544206,8.714334 29.6932724,7.6200938 C30.6984076,9.25290943 31.2222716,11.220143 31.1717875,13.2662384 C30.2016149,13.5640736 29.2172273,13.1343317 28.2396858,11.9802004 Z" id="Path" fill="#1AB220"></path>
        </g>
    </g>
</svg>