<?xml version="1.0" encoding="UTF-8"?>
<svg width="103px" height="88px" viewBox="0 0 103 88" version="1.1" xmlns="http://www.w3.org/2000/svg" xmlns:xlink="http://www.w3.org/1999/xlink">
    <!-- Generator: Sketch 49.2 (51160) - http://www.bohemiancoding.com/sketch -->
    <title>veg-beets</title>
    <desc>Created with Sketch.</desc>
    <defs></defs>
    <g id="veg-beets" stroke="none" stroke-width="1" fill="none" fill-rule="evenodd">
        <g id="Group" transform="translate(31.000000, 16.000000)" stroke="#000000" stroke-width="2">
            <g id="Group-2" transform="translate(18.242405, 17.562690) rotate(29.000000) translate(-18.242405, -17.562690) translate(3.242405, 7.062690)" fill="#1AB220">
                <path d="M14.5403276,4.02538299 C16.7784953,0.49699736 19.3219631,-1.63452622 20.6953972,-0.93472659 C22.3457393,-0.0938352973 21.6817375,4.51672979 19.2123076,9.36325875 C17.8579859,12.0212649 16.2418929,14.1982267 14.7862734,15.4835971 C14.2975214,20.335012 13.0831739,23.7705197 11.6625115,23.7705197 C9.81028924,23.7705197 8.30876645,17.9307556 8.30876645,10.7270415 C8.30876645,3.52332733 9.81028924,-2.31643681 11.6625115,-2.31643681 C12.8846773,-2.31643681 13.9541537,0.226112818 14.5403276,4.02538299 Z" id="Combined-Shape" transform="translate(14.955670, 10.727041) rotate(-75.000000) translate(-14.955670, -10.727041) "></path>
            </g>
            <g id="Group-2-Copy" transform="translate(22.692169, 17.605995) scale(-1, 1) rotate(38.000000) translate(-22.692169, -17.605995) translate(7.692169, 7.105995)" fill="#1AB220">
                <path d="M14.5403276,4.02538299 C16.7784953,0.49699736 19.3219631,-1.63452622 20.6953972,-0.93472659 C22.3457393,-0.0938352973 21.6817375,4.51672979 19.2123076,9.36325875 C17.8579859,12.0212649 16.2418929,14.1982267 14.7862734,15.4835971 C14.2975214,20.335012 13.0831739,23.7705197 11.6625115,23.7705197 C9.81028924,23.7705197 8.30876645,17.9307556 8.30876645,10.7270415 C8.30876645,3.52332733 9.81028924,-2.31643681 11.6625115,-2.31643681 C12.8846773,-2.31643681 13.9541537,0.226112818 14.5403276,4.02538299 Z" id="Combined-Shape" transform="translate(14.955670, 10.727041) rotate(-75.000000) translate(-14.955670, -10.727041) "></path>
            </g>
            <path d="M20.5,55.8004986 C19.9449833,57.5037783 36,46.7485352 36,38.4002493 C36,28.790357 29.0604136,21 20.5,21 C11.9395864,21 5,28.790357 5,38.4002493 C5,47.550293 21.0550167,54.0972189 20.5,55.8004986 Z" id="Oval" fill="#F35A71"></path>
        </g>
    </g>
</svg>