<?xml version="1.0" encoding="UTF-8"?>
<svg width="103px" height="88px" viewBox="0 0 103 88" version="1.1" xmlns="http://www.w3.org/2000/svg" xmlns:xlink="http://www.w3.org/1999/xlink">
    <!-- Generator: Sketch 49.2 (51160) - http://www.bohemiancoding.com/sketch -->
    <title>veg-asparagus</title>
    <desc>Created with Sketch.</desc>
    <defs></defs>
    <g id="veg-asparagus" stroke="none" stroke-width="1" fill="none" fill-rule="evenodd">
        <g id="Group-2" transform="translate(10.000000, 9.000000)">
            <g id="Group-Copy-2" transform="translate(29.000000, 38.500000) scale(-1, 1) rotate(-27.000000) translate(-29.000000, -38.500000) translate(8.000000, 17.000000)">
                <path d="M0.644695383,37.4690376 C0.644695383,37.2051092 3.63846177,33.447225 9.62599454,26.1953848 L12.9787068,22.0076885 C12.9787068,20.949004 12.9787068,20.4196618 12.9787068,20.4196618 C12.9787068,20.4196618 14.1170144,19.5112629 16.3936297,17.6944653 L19.0757254,16.5699225 L24.7450455,11.0526809 L27.9240862,7.77375479 L30.9805571,5.7983773 L33.1001644,5.06972705 L34.0088849,3.11440415 L37.2186607,1.25341212 L37.6689476,3.11440415 L40.3832596,3.11440415 L38.1903325,5.7983773 L36.7498587,7.77375479 L34.7098662,8.87898574 L32.3684481,8.87898574 L29.6811681,12.5909425 L29.6811681,13.5914439 L27.2593946,17.6944653 L24.7450455,17.1403643 L20.5139775,22.4797142 L15.4293639,28.4972065 L5.34271395,41.6652757 L3.28827973,40.7108256 C1.52589016,38.8135619 0.644695383,37.732966 0.644695383,37.4690376 Z" id="Path-13" fill="#1AB220"></path>
                <path d="M12.3516803,34.3854633 C12.027132,34.3836056 11.7030487,34.360554 11.3814876,34.3164547 C10.2667982,34.1680862 9.57183745,33.9058536 9.31724788,33.5435584 C8.75302236,32.7396083 9.37229427,29.8308959 10.2358346,29.2236202 C11.6119944,28.2436982 16.4285537,27.4742523 16.982458,27.3879916 C17.2444134,27.3509231 17.504362,27.4677579 17.6511079,27.6885185 C17.7978538,27.9092791 17.8054076,28.1948677 17.670538,28.4231205 C16.982458,29.5790145 14.6945924,33.4020908 13.7450421,34.0714742 C13.3203163,34.3082299 12.8365678,34.4172409 12.3516803,34.3854633 Z" id="Path" fill="#1AB220"></path>
                <path d="M18.1313398,17.9796208 C17.8533108,17.9798419 17.6024693,17.8122329 17.4955884,17.5548201 C17.3887076,17.2974072 17.4467925,17.0007793 17.6428031,16.8030242 C20.4979345,13.8871019 23.5032167,11.1229805 26.6463287,8.52199257 C26.8368448,8.36605351 27.0958397,8.32389535 27.3257523,8.41139866 C27.555665,8.49890197 27.7215663,8.70277291 27.7609629,8.94621529 C27.8003594,9.18965766 27.7072659,9.43568677 27.5167498,9.59162583 C24.4132088,12.162501 21.445827,14.8943704 18.6267574,17.7760454 C18.4957926,17.9081974 18.31711,17.9816211 18.1313398,17.9796208 Z" id="Shape" fill="#000000" fill-rule="nonzero"></path>
                <path d="M31.0236207,6.7219178 C30.7241577,6.72207975 30.458977,6.52797448 30.367822,6.24189054 C30.276667,5.9558066 30.380472,5.64344474 30.6245344,5.46941176 C31.3951839,4.92424384 32.1692738,4.3997785 32.9261617,3.90981746 C33.2451744,3.70755064 33.6671044,3.80075619 33.8718626,4.1187255 C34.0766209,4.43669481 33.9877759,4.86073762 33.6727284,5.0691619 C32.9296021,5.54877164 32.1727142,6.07323698 31.4192667,6.59425189 C31.3036588,6.67669116 31.1654712,6.72128115 31.0236207,6.7219178 Z" id="Shape" fill="#000000" fill-rule="nonzero"></path>
                <path d="M28.7489032,13.6923849 C28.4734435,13.692714 28.2243344,13.5282509 28.1157351,13.274364 C28.0071357,13.0204771 28.0599778,12.7261011 28.2500453,12.5261396 C29.8842351,10.8009247 31.4702592,9.22407821 32.9599522,7.83700541 C33.1334706,7.6416295 33.402236,7.56147277 33.654007,7.63001012 C33.9057781,7.69854748 34.0972487,7.90399007 34.1484572,8.16054135 C34.1996657,8.41709263 34.101804,8.6806242 33.8957409,8.8410805 C32.4266903,10.2212524 30.8578681,11.7739459 29.2477611,13.4784582 C29.1177084,13.6152814 28.9373855,13.6926098 28.7489032,13.6923849 Z" id="Shape" fill="#000000" fill-rule="nonzero"></path>
                <path d="M15.8559204,28.87724 C15.5921144,28.8773454 15.3514718,28.7261739 15.2364342,28.4880792 C15.1213965,28.2499846 15.1522179,27.9668869 15.3157777,27.7593008 C18.4121373,23.8154594 21.4190465,20.1856072 24.2608165,16.9663562 C24.5125771,16.6805132 24.9477173,16.653479 25.2327293,16.9059736 C25.5177414,17.1584683 25.544697,17.5948771 25.2929363,17.8807201 C22.4718087,21.082719 19.4786611,24.6918686 16.3995035,28.6150074 C16.2682027,28.7816576 16.0676979,28.8783842 15.8559204,28.87724 Z" id="Shape" fill="#000000" fill-rule="nonzero"></path>
                <path d="M5.33079621,42.5979698 C4.72184549,42.5979698 3.65188124,42.2529269 2.04177425,40.648477 C0.43166727,39.0440271 0.0773061179,37.9881956 0.0360213235,37.8674305 C-0.0339937067,37.6590213 -0.000770166102,37.4296231 0.125471711,37.2498036 C3.89653015,32.0484742 7.9436937,27.0542452 12.2494397,22.2887397 C12.5040504,22.0028968 12.9415011,21.9781798 13.2265131,22.2335329 C13.5115251,22.4888859 13.5361703,22.927612 13.2815595,23.2134549 C9.10708683,27.8378471 5.17293649,32.6748595 1.49475073,37.7052603 C1.91110097,38.4251157 2.42649116,39.0825568 3.02572852,39.6582036 C4.21610676,40.8520523 4.91106747,41.1246363 5.20350143,41.186744 C5.82965414,40.2930827 7.95582105,37.2877583 10.9283263,33.3163135 C11.1572859,33.0114144 11.5893455,32.9503944 11.8933583,33.1800216 C12.1973711,33.4096488 12.2582138,33.842968 12.0292541,34.1478671 C8.48220218,38.8853073 6.1530517,42.2287739 6.1289689,42.2529269 C6.06407436,42.3478021 5.97655741,42.4248992 5.87437934,42.4772048 C5.70507973,42.5594957 5.51890932,42.6008562 5.33079621,42.5979698 Z" id="Shape" fill="#000000" fill-rule="nonzero"></path>
                <path d="M12.3516803,34.3854633 C12.027132,34.3836056 11.7030487,34.360554 11.3814876,34.3164547 C10.2667982,34.1680862 9.57183745,33.9058536 9.31724788,33.5435584 C8.75302236,32.7396083 9.37229427,29.8308959 10.2358346,29.2236202 C11.6119944,28.2436982 16.4285537,27.4742523 16.982458,27.3879916 C17.2444134,27.3509231 17.504362,27.4677579 17.6511079,27.6885185 C17.7978538,27.9092791 17.8054076,28.1948677 17.670538,28.4231205 C16.982458,29.5790145 14.6945924,33.4020908 13.7450421,34.0714742 C13.3203163,34.3082299 12.8365678,34.4172409 12.3516803,34.3854633 Z M10.4697817,32.705104 C11.0305668,32.9293819 12.6200314,33.1157051 12.9743926,32.9293819 C13.3631577,32.6533475 14.5569764,30.8901779 15.7267122,29.0062432 C13.8792177,29.3512862 11.694564,29.8861028 11.0340072,30.3484604 C10.7484541,30.6244948 10.4319373,32.135783 10.4697817,32.705104 Z" id="Shape" fill="#000000" fill-rule="nonzero"></path>
                <path d="M13.8361861,24.3567158 C13.5972809,24.3703906 13.3592306,24.3178668 13.1481062,24.2048969 C12.7662218,23.9633668 12.4600263,23.3250373 12.2639235,22.3002596 C12.1228671,21.6101737 12.0265359,20.6406029 12.3602547,20.1023358 C13.1928314,18.7463169 17.0632809,16.331016 17.4967712,16.0687833 C17.7243605,15.9335205 18.0091189,15.9410962 18.2292377,16.08827 C18.4493566,16.2354438 18.5658518,16.4961502 18.5288911,16.7588693 C18.3603115,17.9975736 17.7720032,22.1173868 17.194016,23.042102 C16.9187841,23.4837571 16.254787,23.8529531 15.2192267,24.1358883 C14.7694679,24.2682523 14.3046939,24.3424619 13.8361861,24.3567158 Z M16.9600689,18.0562309 C15.5288627,19.0154504 13.9153153,20.2162 13.5196693,20.8338269 C13.395815,21.1616178 13.6504045,22.4900333 13.8809113,22.9799943 C14.4520176,22.9558413 15.8006542,22.5590419 16.0414822,22.2899083 C16.271989,21.9276132 16.6504329,20.0298768 16.9600689,18.0562309 Z" id="Shape" fill="#000000" fill-rule="nonzero"></path>
                <path d="M26.4584202,18.0979338 C26.1201738,18.0935373 25.7829261,18.0600605 25.4503831,17.9978713 C24.0054153,17.7425395 23.7577066,17.3560913 23.675137,17.2284254 C23.1969214,16.4831326 23.8299549,14.005724 24.6246872,13.4916099 C25.8185059,12.7221641 29.6304686,12.256356 30.3804757,12.1735457 C30.6441427,12.1445638 30.9009427,12.2701573 31.0405307,12.4963599 C31.1801188,12.7225624 31.177637,13.0090914 31.0341516,13.2328277 C30.4217605,14.1816959 28.3575207,17.3181366 27.5215037,17.8564037 C27.1967537,18.0353448 26.8283574,18.1190436 26.4584202,18.0979338 Z M24.8758364,16.4348266 C25.3609327,16.6211498 26.5100262,16.8005721 26.8059005,16.6798071 C27.1017749,16.486583 28.075408,15.1719692 29.0456006,13.7434913 C27.57655,13.9574179 25.9389199,14.3024609 25.3918963,14.6475039 C25.16483,14.889034 24.8930384,15.948316 24.8758364,16.4348266 Z" id="Shape" fill="#000000" fill-rule="nonzero"></path>
                <path d="M37.9488892,6.3808896 C37.6193355,6.37170858 37.2927205,6.31595246 36.9786965,6.21526897 C35.9465767,5.91163114 35.7848779,5.58038987 35.7229507,5.4561744 C35.4133147,4.82819616 36.0669906,3.08227866 36.7275473,2.75103739 C37.6186108,2.30938237 40.2092317,2.28177893 40.7218512,2.28177893 C40.9903445,2.28020854 41.2352242,2.43541321 41.3490512,2.67929805 C41.4628782,2.92318289 41.4248584,3.21119465 41.2516727,3.41697035 C40.487904,4.35548727 39.1151846,5.97373888 38.5199955,6.26702541 C38.3420988,6.35222806 38.1457528,6.39137448 37.9488892,6.3808896 Z M37.0371833,4.7971423 C37.3243711,4.91670917 37.6285748,4.99007065 37.938568,5.01451938 C38.3838794,4.61706804 38.7990247,4.18687225 39.1805522,3.72750904 C38.5732377,3.74331575 37.9696418,3.8278109 37.3812233,3.97939042 C37.2259385,4.23294103 37.1099367,4.50866678 37.0371833,4.7971423 Z" id="Shape" fill="#000000" fill-rule="nonzero"></path>
                <path d="M34.1785992,6.00814796 C33.8501562,6.03467653 33.521176,5.96388956 33.2324894,5.8045726 C32.6132174,5.32496285 32.3792703,3.19949806 32.8884494,2.55426768 C33.5765293,1.6433542 36.3288489,0.318389133 36.8896341,0.0630573236 C37.1264772,-0.0461091226 37.4044936,-0.0116829591 37.607749,0.15197992 C37.8110043,0.3156428 37.9045998,0.580441524 37.8495055,0.835953611 C37.6052372,1.96079374 36.9825249,4.63142645 36.5008689,5.26630554 C36.1293058,5.73211358 35.0283779,6.00814796 34.1785992,6.00814796 Z M34.0031389,3.35821784 C33.9633798,3.78923262 34.0006623,4.22390468 34.1132316,4.64177774 C34.5626611,4.63589598 35.0075412,4.55063176 35.4274643,4.38989636 C35.7424476,3.60718412 35.9910377,2.7992195 36.1705906,1.97459546 C35.2210403,2.46800693 34.288692,3.02697657 33.9962581,3.36166826 L34.0031389,3.35821784 Z" id="Shape" fill="#000000" fill-rule="nonzero"></path>
                <path d="M35.1969458,9.42032604 C34.7915332,9.40537993 34.3904869,9.33098169 34.0065676,9.19949853 C32.829951,8.82340167 32.7026562,8.45765611 32.6476098,8.29893634 C32.3792586,7.52604005 33.6212429,5.84223028 34.3127632,5.60070019 C35.4515354,5.20390076 38.7508786,5.34536838 39.1293225,5.36262053 C39.4127755,5.377264 39.6581782,5.56495813 39.7472473,5.83523498 C39.8363165,6.10551184 39.7507732,6.40290529 39.5318493,6.5840727 C38.8437693,7.16374491 36.4733341,9.07183262 35.6923634,9.34441658 C35.5326372,9.39740401 35.365161,9.42306524 35.1969458,9.42032604 Z M34.1063392,7.76411971 C34.4702203,7.92107786 34.8596614,8.00995155 35.2554326,8.02635238 C35.926287,7.63715691 36.5637993,7.19282868 37.161414,6.69793688 C36.3535986,6.66935877 35.5452437,6.73653202 34.7531343,6.89806182 C34.4903085,7.14803632 34.2716149,7.44086675 34.1063392,7.76411971 Z" id="Shape" fill="#000000" fill-rule="nonzero"></path>
                <path d="M28.0895439,11.6344098 C27.8244692,11.6526286 27.5596679,11.5952074 27.3257752,11.4687892 C26.9817352,11.2341599 26.7512285,10.664839 26.6136125,9.76772724 C26.4759965,8.87061548 26.5413641,8.22883552 26.7993941,7.8561891 C27.556282,6.7589524 30.6664031,4.99233232 31.2719135,4.65073976 C31.5047075,4.52070332 31.7914349,4.5371587 32.0079188,4.69297933 C32.2244026,4.84879997 32.331719,5.11596921 32.2833909,5.37878046 C32.094169,6.41390942 31.440493,9.86433927 30.9072311,10.616533 C30.5322276,11.1720522 29.0734982,11.6344098 28.0895439,11.6344098 Z M27.9484875,8.61528367 C27.8968551,9.17314929 27.9600904,9.73570495 28.1342691,10.2680396 C28.7131806,10.2304591 29.2784789,10.0755172 29.7959821,9.81258283 C29.9886444,9.49169285 30.3326844,8.10807048 30.6423203,6.62093521 C29.5035481,7.3248229 28.2890871,8.16672778 27.9450471,8.6187341 L27.9484875,8.61528367 Z" id="Shape" fill="#000000" fill-rule="nonzero"></path>
                <path d="M18.2872396,26.5409628 C17.6576464,26.5409628 17.0658977,26.4201977 16.8422718,26.1027582 C16.7425002,25.9612906 16.4982318,25.6265989 16.9386029,24.4500023 C17.0997661,23.9104507 17.4042121,23.425018 17.8193452,23.0456773 C18.8514651,22.3210871 22.1439274,21.4067231 22.5154906,21.3204624 C22.7981752,21.2438005 23.0982687,21.3549762 23.2633789,21.5975328 C23.428489,21.8400894 23.4224368,22.1608778 23.2482957,22.3969965 C22.6875106,23.1595415 20.7987312,25.6852562 20.1003301,26.1924694 C19.5336965,26.4562729 18.9109733,26.5759662 18.2872396,26.5409628 Z" id="Path" fill="#1AB220"></path>
                <path d="M18.2872396,26.5409628 C17.6576464,26.5409628 17.0658977,26.4201977 16.8422718,26.1027582 C16.7425002,25.9612906 16.4982318,25.6265989 16.9386029,24.4500023 C17.0997661,23.9104507 17.4042121,23.425018 17.8193452,23.0456773 C18.8514651,22.3210871 22.1439274,21.4067231 22.5154906,21.3204624 C22.7981752,21.2438005 23.0982687,21.3549762 23.2633789,21.5975328 C23.428489,21.8400894 23.4224368,22.1608778 23.2482957,22.3969965 C22.6875106,23.1595415 20.7987312,25.6852562 20.1003301,26.1924694 C19.5336965,26.4562729 18.9109733,26.5759662 18.2872396,26.5409628 Z M18.1496236,25.1607908 C18.5432649,25.1854808 18.9381518,25.1399189 19.315919,25.0262241 C19.8748621,24.4746441 20.389108,23.8792874 20.8537776,23.2458023 C20.0739665,23.4721972 19.3207565,23.7822259 18.6071967,24.1705175 C18.3998778,24.4709972 18.245138,24.8047161 18.1496236,25.1573404 L18.1496236,25.1607908 Z" id="Shape" fill="#000000" fill-rule="nonzero"></path>
            </g>
            <g id="Group-Copy" transform="translate(35.500000, 35.500000) scale(-1, 1) rotate(-43.000000) translate(-35.500000, -35.500000) translate(11.000000, 10.000000)">
                <path d="M0.75735973,44.0775853 C0.75735973,43.767107 4.27430457,39.3464313 11.3081942,30.8155582 L15.2468129,25.889263 C15.2468129,24.6438545 15.2468129,24.0211503 15.2468129,24.0211503 C15.2468129,24.0211503 16.5840465,22.9525339 19.2585138,20.8153012 L22.4093217,19.4924188 L29.0693892,13.0020816 L32.8039862,9.14483964 L36.3945934,6.82105777 L38.8846147,5.96389289 L39.9521396,3.66370271 L43.7228427,1.47448088 L44.25182,3.66370271 L47.4404741,3.66370271 L44.86432,6.82105777 L43.1721147,9.14483964 L40.7756214,10.4450041 L38.0250266,10.4450041 L34.8681286,14.8116519 L34.8681286,15.9886153 L32.0231357,20.8153012 L29.0693892,20.1634714 L24.0989169,26.4445415 L18.1257369,33.5233604 L6.27638494,49.0139289 L3.86292614,47.891139 C1.79254853,45.6592482 0.75735973,44.3880637 0.75735973,44.0775853 Z" id="Path-13" fill="#1AB220"></path>
                <path d="M14.5102098,40.45015 C14.1289447,40.4479647 13.748226,40.4208474 13.3704702,40.3689702 C12.0609821,40.1944334 11.2445729,39.8859498 10.9454923,39.4597554 C10.282665,38.5140097 11.0101584,35.0922773 12.0246074,34.3778943 C13.6412593,33.2251399 19.299541,32.3199841 19.9502434,32.2185093 C20.257977,32.1749029 20.5633532,32.3123442 20.7357439,32.5720412 C20.9081345,32.8317382 20.9170083,33.1676971 20.7585694,33.4362076 C19.9502434,34.7959708 17.2625596,39.2933366 16.1470698,40.0807816 C15.6481207,40.3592947 15.0798342,40.4875324 14.5102098,40.45015 Z" id="Path" fill="#1AB220"></path>
                <path d="M21.2998992,21.1507506 C20.9732828,21.1510107 20.6786053,20.95384 20.5530464,20.6510263 C20.4274875,20.3482126 20.4957231,19.9992674 20.7259877,19.7666335 C24.0800703,16.3364196 27.6105434,13.0847803 31.3029329,10.0250468 C31.5267428,9.84160419 31.8309986,9.79201044 32.1010898,9.89494702 C32.3711811,9.9978836 32.5660747,10.237712 32.612356,10.5240912 C32.6586373,10.8104703 32.5492752,11.0998925 32.3254652,11.2833351 C28.679562,14.3076447 25.1936126,17.5213436 21.8818938,20.9112699 C21.7280422,21.06673 21.5181338,21.1531037 21.2998992,21.1507506 Z" id="Shape" fill="#000000" fill-rule="nonzero"></path>
                <path d="M36.4451827,7.9074864 C36.0933868,7.90767692 35.7818641,7.6793366 35.6747792,7.34279502 C35.5676943,7.00625344 35.6896399,6.63879921 35.9763536,6.43407141 C36.8816787,5.79275028 37.7910454,5.17578312 38.680204,4.59940591 C39.054966,4.36146456 39.5506309,4.47110911 39.7911718,4.8451598 C40.0317127,5.21921049 39.9273416,5.71804324 39.5572376,5.96322805 C38.6842456,6.52742828 37.7950871,7.14439544 36.9099701,7.7573036 C36.7741591,7.85428298 36.6118224,7.90673747 36.4451827,7.9074864 Z" id="Shape" fill="#000000" fill-rule="nonzero"></path>
                <path d="M33.7729448,16.1073596 C33.4493469,16.1077468 33.1567045,15.9142767 33.0291267,15.6156109 C32.901549,15.3169451 32.9636255,14.970649 33.1869085,14.7354195 C35.1066826,12.7059222 36.9698739,10.8509618 38.7198996,9.21924599 C38.9237414,8.98941093 39.2394751,8.89511667 39.5352446,8.97574221 C39.8310141,9.05636774 40.0559454,9.29804497 40.1161029,9.59984512 C40.1762604,9.90164526 40.0612968,10.2116568 39.8192229,10.4004134 C38.093447,12.0240112 36.2504638,13.8505587 34.3589811,15.8557019 C34.2062009,16.0166572 33.9943655,16.1076242 33.7729448,16.1073596 Z" id="Shape" fill="#000000" fill-rule="nonzero"></path>
                <path d="M18.6268367,33.9704218 C18.316929,33.9705457 18.0342327,33.7927116 17.8990915,33.5126233 C17.7639504,33.2325351 17.800158,32.8995064 17.9923008,32.6553076 C21.6297676,28.0158769 25.162152,23.7458147 28.5005382,19.9587729 C28.7962955,19.6225148 29.3074791,19.5907125 29.6422986,19.8877405 C29.9771182,20.1847685 30.0087845,20.6981483 29.7130272,21.0344064 C26.3988907,24.8011533 22.8826728,29.0468615 19.2654142,33.6619382 C19.1111677,33.8579812 18.8756235,33.9717677 18.6268367,33.9704218 Z" id="Shape" fill="#000000" fill-rule="nonzero"></path>
                <path d="M6.2623845,50.1111256 C5.54701603,50.1111256 4.29006917,49.7052262 2.39858643,47.8177938 C0.507103689,45.9303613 0.0908158212,44.688309 0.0423162637,44.5462442 C-0.0399343088,44.3010771 -0.000904757202,44.0312192 0.147398638,43.8196842 C4.57747193,37.7009779 9.33190135,31.8258989 14.390102,26.2198842 C14.6892075,25.8836261 15.2031053,25.8545497 15.5379248,26.1549403 C15.8727444,26.4553309 15.9016964,26.9714366 15.6025909,27.3076947 C10.6986043,32.7477074 6.07693786,38.437841 1.75596729,44.3554715 C2.24507721,45.2022903 2.8505349,45.9756867 3.55449255,46.6528624 C4.95289645,48.0572744 5.76930567,48.377935 6.1128442,48.4509969 C6.84842082,47.3997173 9.34614803,43.8643332 12.8381162,39.1924305 C13.1070879,38.8337552 13.6146524,38.7619729 13.9717933,39.0321003 C14.3289342,39.3022276 14.4004094,39.8119729 14.1314377,40.1706482 C9.96451739,45.7436476 7.22833402,49.6768132 7.20004261,49.7052262 C7.12380737,49.8168349 7.02099631,49.9075299 6.90096201,49.9690608 C6.7020763,50.0658656 6.4833715,50.114521 6.2623845,50.1111256 Z" id="Shape" fill="#000000" fill-rule="nonzero"></path>
                <path d="M14.5102098,40.45015 C14.1289447,40.4479647 13.748226,40.4208474 13.3704702,40.3689702 C12.0609821,40.1944334 11.2445729,39.8859498 10.9454923,39.4597554 C10.282665,38.5140097 11.0101584,35.0922773 12.0246074,34.3778943 C13.6412593,33.2251399 19.299541,32.3199841 19.9502434,32.2185093 C20.257977,32.1749029 20.5633532,32.3123442 20.7357439,32.5720412 C20.9081345,32.8317382 20.9170083,33.1676971 20.7585694,33.4362076 C19.9502434,34.7959708 17.2625596,39.2933366 16.1470698,40.0807816 C15.6481207,40.3592947 15.0798342,40.4875324 14.5102098,40.45015 Z M12.2994383,38.4734197 C12.9582239,38.7372544 14.8254569,38.9564401 15.2417447,38.7372544 C15.6984489,38.4125348 17.1008944,36.3383887 18.4750486,34.1221777 C16.3046934,34.5280771 13.7382585,35.1572213 12.9622655,35.7011265 C12.6268103,36.0258461 12.2549803,37.8036857 12.2994383,38.4734197 Z" id="Shape" fill="#000000" fill-rule="nonzero"></path>
                <path d="M31.0821863,21.2899309 C30.6848292,21.284759 30.2886456,21.2453778 29.8979887,21.17222 C28.2005042,20.8718544 27.9095069,20.417247 27.8125078,20.2670643 C27.2507212,19.3903214 27.9943811,16.4759634 28.9279976,15.8711732 C30.3304431,14.9660175 34.8085689,14.4180532 35.6896442,14.3206374 C35.9993886,14.2865438 36.3010659,14.4342887 36.4650478,14.7003874 C36.6290298,14.9664861 36.6261142,15.3035512 36.4575539,15.5667487 C35.7381438,16.6829721 33.3131659,20.3725981 32.3310499,21.0058012 C31.9495479,21.2163029 31.5167722,21.3147639 31.0821863,21.2899309 Z M29.2230366,19.3334955 C29.7929064,19.5526812 31.1428107,19.7637489 31.4903909,19.6216841 C31.837971,19.3943804 32.9817523,17.8479035 34.1214919,16.1674798 C32.3957159,16.4191375 30.4719002,16.8250369 29.829281,17.2309364 C29.5625335,17.515066 29.2432447,18.7611773 29.2230366,19.3334955 Z" id="Shape" fill="#000000" fill-rule="nonzero"></path>
                <path d="M44.5806829,7.50630984 C44.1935378,7.49550954 43.8098449,7.42991951 43.4409433,7.31147811 C42.2284544,6.9542866 42.0384978,6.56462313 41.9657485,6.41849933 C41.6020018,5.67976233 42.3699114,3.62591113 43.1459044,3.23624766 C44.1926865,2.71669637 47.2360337,2.68422441 47.8382365,2.68422441 C48.1536506,2.68237705 48.4413245,2.86495572 48.5750434,3.15185539 C48.7087624,3.43875507 48.6640984,3.7775645 48.4606475,4.01963359 C47.5634057,5.12368009 45.9507954,7.0273485 45.2515935,7.37236303 C45.0426082,7.47259316 44.8119497,7.51864398 44.5806829,7.50630984 Z M43.509651,5.64323138 C43.8470266,5.78388669 44.2043917,5.87018719 44.568558,5.89894803 C45.0916903,5.43139679 45.5793847,4.92532584 46.0275864,4.3849431 C45.3141401,4.4035377 44.6050622,4.50293556 43.913814,4.68124969 C43.7313923,4.97951993 43.5951185,5.30387641 43.509651,5.64323138 Z" id="Shape" fill="#000000" fill-rule="nonzero"></path>
                <path d="M40.1515124,7.06782644 C39.765672,7.09903395 39.3792006,7.01576202 39.0400642,6.82834576 C38.3125709,6.26414553 38.0377401,3.76380494 38.6359013,3.00477297 C39.4442272,1.93319844 42.677531,0.374544559 43.3363167,0.0741789686 C43.6145495,-0.054241553 43.941151,-0.0137435242 44.1799264,0.178785161 C44.4187019,0.371313845 44.5286537,0.682816065 44.4639314,0.983393729 C44.1769757,2.30662593 43.4454407,5.44828764 42.8796125,6.19514263 C42.4431165,6.74310688 41.149795,7.06782644 40.1515124,7.06782644 Z M39.9453893,3.95051869 C39.8986822,4.45755308 39.9424799,4.9688898 40.0747215,5.46046463 C40.6026914,5.45354548 41.125317,5.35324291 41.618624,5.16415803 C41.9886526,4.24339604 42.2806852,3.29292783 42.4916161,2.3228619 C41.3761263,2.90329811 40.2808446,3.56085522 39.9373061,3.95457768 L39.9453893,3.95051869 Z" id="Shape" fill="#000000" fill-rule="nonzero"></path>
                <path d="M41.3478212,11.0818225 C40.8715602,11.0642403 40.4004288,10.9767202 39.9494172,10.8220469 C38.5671799,10.3796165 38.4176396,9.94936307 38.3529735,9.76264932 C38.0377264,8.85343456 39.4967547,6.87264526 40.3091223,6.58851565 C41.6469018,6.12173128 45.5228247,6.28815006 45.967404,6.30844503 C46.3003921,6.32567122 46.5886804,6.54646963 46.6933149,6.86441618 C46.7979493,7.18236273 46.6974569,7.53220853 46.4402747,7.74532907 C45.6319487,8.42724014 42.8472658,10.6718641 41.9298158,10.9925246 C41.7421766,11.0548577 41.545433,11.0850449 41.3478212,11.0818225 Z M40.0666245,9.13350518 C40.494096,9.31814659 40.9515942,9.42269525 41.4165289,9.44198876 C42.204619,8.9841495 42.9535404,8.46145352 43.6555918,7.87927589 C42.7066058,7.84565735 41.7569861,7.92467818 40.8264509,8.11469757 C40.5176947,8.40876096 40.2607831,8.75323894 40.0666245,9.13350518 Z" id="Shape" fill="#000000" fill-rule="nonzero"></path>
                <path d="M32.9983585,13.6864121 C32.6869605,13.7078443 32.3758835,13.6402954 32.1011167,13.4915804 C31.6969537,13.2155688 31.4261645,12.5458347 31.2644993,11.4904961 C31.1028341,10.4351575 31.1796251,9.68018458 31.4827473,9.24181317 C32.3719059,7.95105293 36.0255392,5.87284777 36.7368661,5.47100731 C37.0103422,5.31803588 37.347177,5.33739355 37.6014927,5.52069683 C37.8558084,5.7040001 37.9818789,6.01829093 37.9251052,6.32745515 C37.7028156,7.54515349 36.9349059,11.604148 36.3084533,12.4890087 C35.8679157,13.1425069 34.1542646,13.6864121 32.9983585,13.6864121 Z M32.8326517,10.134792 C32.7719962,10.7910503 32.8462822,11.4528259 33.0508997,12.0790503 C33.7309794,12.0348416 34.395067,11.8525721 35.0030069,11.543263 C35.2293381,11.1657766 35.6335011,9.53811977 35.9972478,7.78869315 C34.6594683,8.61672803 33.232773,9.60712268 32.8286101,10.138851 L32.8326517,10.134792 Z" id="Shape" fill="#000000" fill-rule="nonzero"></path>
                <path d="M21.4830433,31.222087 C20.743425,31.222087 20.0482647,31.0800222 19.7855588,30.7065947 C19.6683515,30.5401759 19.3813958,30.1464534 19.8987244,28.7623363 C20.0880518,28.1276221 20.4457015,27.5565719 20.9333816,27.1103256 C22.1458706,26.2579367 26.0137103,25.1823032 26.4502063,25.0808284 C26.7822917,24.9906453 27.1348283,25.1214295 27.3287925,25.4067666 C27.5227566,25.6921038 27.5156467,26.0694708 27.3110734,26.3472346 C26.6522878,27.2442724 24.433433,30.2154564 23.6129822,30.8121285 C22.947326,31.12246 22.2157782,31.2632641 21.4830433,31.222087 Z" id="Path" fill="#1AB220"></path>
                <path d="M21.4830433,31.222087 C20.743425,31.222087 20.0482647,31.0800222 19.7855588,30.7065947 C19.6683515,30.5401759 19.3813958,30.1464534 19.8987244,28.7623363 C20.0880518,28.1276221 20.4457015,27.5565719 20.9333816,27.1103256 C22.1458706,26.2579367 26.0137103,25.1823032 26.4502063,25.0808284 C26.7822917,24.9906453 27.1348283,25.1214295 27.3287925,25.4067666 C27.5227566,25.6921038 27.5156467,26.0694708 27.3110734,26.3472346 C26.6522878,27.2442724 24.433433,30.2154564 23.6129822,30.8121285 C22.947326,31.12246 22.2157782,31.2632641 21.4830433,31.222087 Z M21.3213781,29.5984892 C21.7838106,29.6275339 22.2477063,29.573936 22.6914906,29.4401884 C23.3481123,28.7913244 23.9522257,28.0909624 24.4980991,27.3457473 C23.5820113,27.6120723 22.6971734,27.9767819 21.8589148,28.4335578 C21.6153657,28.7870342 21.4335842,29.1796123 21.3213781,29.5944302 L21.3213781,29.5984892 Z" id="Shape" fill="#000000" fill-rule="nonzero"></path>
            </g>
            <g id="Group" transform="translate(48.500000, 35.500000) rotate(-34.000000) translate(-48.500000, -35.500000) translate(24.000000, 10.000000)">
                <path d="M0.75735973,44.0775853 C0.75735973,43.767107 4.27430457,39.3464313 11.3081942,30.8155582 L15.2468129,25.889263 C15.2468129,24.6438545 15.2468129,24.0211503 15.2468129,24.0211503 C15.2468129,24.0211503 16.5840465,22.9525339 19.2585138,20.8153012 L22.4093217,19.4924188 L29.0693892,13.0020816 L32.8039862,9.14483964 L36.3945934,6.82105777 L38.8846147,5.96389289 L39.9521396,3.66370271 L43.7228427,1.47448088 L44.25182,3.66370271 L47.4404741,3.66370271 L44.86432,6.82105777 L43.1721147,9.14483964 L40.7756214,10.4450041 L38.0250266,10.4450041 L34.8681286,14.8116519 L34.8681286,15.9886153 L32.0231357,20.8153012 L29.0693892,20.1634714 L24.0989169,26.4445415 L18.1257369,33.5233604 L6.27638494,49.0139289 L3.86292614,47.891139 C1.79254853,45.6592482 0.75735973,44.3880637 0.75735973,44.0775853 Z" id="Path-13" fill="#1AB220"></path>
                <path d="M14.5102098,40.45015 C14.1289447,40.4479647 13.748226,40.4208474 13.3704702,40.3689702 C12.0609821,40.1944334 11.2445729,39.8859498 10.9454923,39.4597554 C10.282665,38.5140097 11.0101584,35.0922773 12.0246074,34.3778943 C13.6412593,33.2251399 19.299541,32.3199841 19.9502434,32.2185093 C20.257977,32.1749029 20.5633532,32.3123442 20.7357439,32.5720412 C20.9081345,32.8317382 20.9170083,33.1676971 20.7585694,33.4362076 C19.9502434,34.7959708 17.2625596,39.2933366 16.1470698,40.0807816 C15.6481207,40.3592947 15.0798342,40.4875324 14.5102098,40.45015 Z" id="Path" fill="#1AB220"></path>
                <path d="M21.2998992,21.1507506 C20.9732828,21.1510107 20.6786053,20.95384 20.5530464,20.6510263 C20.4274875,20.3482126 20.4957231,19.9992674 20.7259877,19.7666335 C24.0800703,16.3364196 27.6105434,13.0847803 31.3029329,10.0250468 C31.5267428,9.84160419 31.8309986,9.79201044 32.1010898,9.89494702 C32.3711811,9.9978836 32.5660747,10.237712 32.612356,10.5240912 C32.6586373,10.8104703 32.5492752,11.0998925 32.3254652,11.2833351 C28.679562,14.3076447 25.1936126,17.5213436 21.8818938,20.9112699 C21.7280422,21.06673 21.5181338,21.1531037 21.2998992,21.1507506 Z" id="Shape" fill="#000000" fill-rule="nonzero"></path>
                <path d="M36.4451827,7.9074864 C36.0933868,7.90767692 35.7818641,7.6793366 35.6747792,7.34279502 C35.5676943,7.00625344 35.6896399,6.63879921 35.9763536,6.43407141 C36.8816787,5.79275028 37.7910454,5.17578312 38.680204,4.59940591 C39.054966,4.36146456 39.5506309,4.47110911 39.7911718,4.8451598 C40.0317127,5.21921049 39.9273416,5.71804324 39.5572376,5.96322805 C38.6842456,6.52742828 37.7950871,7.14439544 36.9099701,7.7573036 C36.7741591,7.85428298 36.6118224,7.90673747 36.4451827,7.9074864 Z" id="Shape" fill="#000000" fill-rule="nonzero"></path>
                <path d="M33.7729448,16.1073596 C33.4493469,16.1077468 33.1567045,15.9142767 33.0291267,15.6156109 C32.901549,15.3169451 32.9636255,14.970649 33.1869085,14.7354195 C35.1066826,12.7059222 36.9698739,10.8509618 38.7198996,9.21924599 C38.9237414,8.98941093 39.2394751,8.89511667 39.5352446,8.97574221 C39.8310141,9.05636774 40.0559454,9.29804497 40.1161029,9.59984512 C40.1762604,9.90164526 40.0612968,10.2116568 39.8192229,10.4004134 C38.093447,12.0240112 36.2504638,13.8505587 34.3589811,15.8557019 C34.2062009,16.0166572 33.9943655,16.1076242 33.7729448,16.1073596 Z" id="Shape" fill="#000000" fill-rule="nonzero"></path>
                <path d="M18.6268367,33.9704218 C18.316929,33.9705457 18.0342327,33.7927116 17.8990915,33.5126233 C17.7639504,33.2325351 17.800158,32.8995064 17.9923008,32.6553076 C21.6297676,28.0158769 25.162152,23.7458147 28.5005382,19.9587729 C28.7962955,19.6225148 29.3074791,19.5907125 29.6422986,19.8877405 C29.9771182,20.1847685 30.0087845,20.6981483 29.7130272,21.0344064 C26.3988907,24.8011533 22.8826728,29.0468615 19.2654142,33.6619382 C19.1111677,33.8579812 18.8756235,33.9717677 18.6268367,33.9704218 Z" id="Shape" fill="#000000" fill-rule="nonzero"></path>
                <path d="M6.2623845,50.1111256 C5.54701603,50.1111256 4.29006917,49.7052262 2.39858643,47.8177938 C0.507103689,45.9303613 0.0908158212,44.688309 0.0423162637,44.5462442 C-0.0399343088,44.3010771 -0.000904757202,44.0312192 0.147398638,43.8196842 C4.57747193,37.7009779 9.33190135,31.8258989 14.390102,26.2198842 C14.6892075,25.8836261 15.2031053,25.8545497 15.5379248,26.1549403 C15.8727444,26.4553309 15.9016964,26.9714366 15.6025909,27.3076947 C10.6986043,32.7477074 6.07693786,38.437841 1.75596729,44.3554715 C2.24507721,45.2022903 2.8505349,45.9756867 3.55449255,46.6528624 C4.95289645,48.0572744 5.76930567,48.377935 6.1128442,48.4509969 C6.84842082,47.3997173 9.34614803,43.8643332 12.8381162,39.1924305 C13.1070879,38.8337552 13.6146524,38.7619729 13.9717933,39.0321003 C14.3289342,39.3022276 14.4004094,39.8119729 14.1314377,40.1706482 C9.96451739,45.7436476 7.22833402,49.6768132 7.20004261,49.7052262 C7.12380737,49.8168349 7.02099631,49.9075299 6.90096201,49.9690608 C6.7020763,50.0658656 6.4833715,50.114521 6.2623845,50.1111256 Z" id="Shape" fill="#000000" fill-rule="nonzero"></path>
                <path d="M14.5102098,40.45015 C14.1289447,40.4479647 13.748226,40.4208474 13.3704702,40.3689702 C12.0609821,40.1944334 11.2445729,39.8859498 10.9454923,39.4597554 C10.282665,38.5140097 11.0101584,35.0922773 12.0246074,34.3778943 C13.6412593,33.2251399 19.299541,32.3199841 19.9502434,32.2185093 C20.257977,32.1749029 20.5633532,32.3123442 20.7357439,32.5720412 C20.9081345,32.8317382 20.9170083,33.1676971 20.7585694,33.4362076 C19.9502434,34.7959708 17.2625596,39.2933366 16.1470698,40.0807816 C15.6481207,40.3592947 15.0798342,40.4875324 14.5102098,40.45015 Z M12.2994383,38.4734197 C12.9582239,38.7372544 14.8254569,38.9564401 15.2417447,38.7372544 C15.6984489,38.4125348 17.1008944,36.3383887 18.4750486,34.1221777 C16.3046934,34.5280771 13.7382585,35.1572213 12.9622655,35.7011265 C12.6268103,36.0258461 12.2549803,37.8036857 12.2994383,38.4734197 Z" id="Shape" fill="#000000" fill-rule="nonzero"></path>
                <path d="M16.2541418,28.6525966 C15.9734865,28.6686832 15.6938354,28.6068957 15.4458158,28.4740009 C14.9971949,28.1898712 14.6374899,27.4389573 14.407117,26.2334359 C14.2414102,25.421637 14.1282445,24.2810596 14.5202826,23.6478564 C15.498357,22.0526716 20.0451905,19.2113755 20.5544359,18.9028919 C20.8217977,18.7437723 21.1563193,18.7526842 21.4149053,18.9258155 C21.6734913,19.0989468 21.8103446,19.405635 21.7669248,19.7146908 C21.568885,21.1718698 20.8777663,26.0183092 20.1987725,27.1061197 C19.8754421,27.625671 19.0954075,28.0599834 17.878877,28.392821 C17.3505201,28.5485305 16.8045241,28.6358287 16.2541418,28.6525966 Z M19.9239416,21.2408727 C18.2426236,22.3692732 16.3470993,23.7818033 15.8823119,24.5083633 C15.7368132,24.8939677 16.0358938,26.4566806 16.306683,27.0330578 C16.9775935,27.0046449 18.5619124,26.5378605 18.8448265,26.2212589 C19.1156157,25.7950645 19.560195,23.5626176 19.9239416,21.2408727 Z" id="Shape" fill="#000000" fill-rule="nonzero"></path>
                <path d="M31.0821863,21.2899309 C30.6848292,21.284759 30.2886456,21.2453778 29.8979887,21.17222 C28.2005042,20.8718544 27.9095069,20.417247 27.8125078,20.2670643 C27.2507212,19.3903214 27.9943811,16.4759634 28.9279976,15.8711732 C30.3304431,14.9660175 34.8085689,14.4180532 35.6896442,14.3206374 C35.9993886,14.2865438 36.3010659,14.4342887 36.4650478,14.7003874 C36.6290298,14.9664861 36.6261142,15.3035512 36.4575539,15.5667487 C35.7381438,16.6829721 33.3131659,20.3725981 32.3310499,21.0058012 C31.9495479,21.2163029 31.5167722,21.3147639 31.0821863,21.2899309 Z M29.2230366,19.3334955 C29.7929064,19.5526812 31.1428107,19.7637489 31.4903909,19.6216841 C31.837971,19.3943804 32.9817523,17.8479035 34.1214919,16.1674798 C32.3957159,16.4191375 30.4719002,16.8250369 29.829281,17.2309364 C29.5625335,17.515066 29.2432447,18.7611773 29.2230366,19.3334955 Z" id="Shape" fill="#000000" fill-rule="nonzero"></path>
                <path d="M44.5806829,7.50630984 C44.1935378,7.49550954 43.8098449,7.42991951 43.4409433,7.31147811 C42.2284544,6.9542866 42.0384978,6.56462313 41.9657485,6.41849933 C41.6020018,5.67976233 42.3699114,3.62591113 43.1459044,3.23624766 C44.1926865,2.71669637 47.2360337,2.68422441 47.8382365,2.68422441 C48.1536506,2.68237705 48.4413245,2.86495572 48.5750434,3.15185539 C48.7087624,3.43875507 48.6640984,3.7775645 48.4606475,4.01963359 C47.5634057,5.12368009 45.9507954,7.0273485 45.2515935,7.37236303 C45.0426082,7.47259316 44.8119497,7.51864398 44.5806829,7.50630984 Z M43.509651,5.64323138 C43.8470266,5.78388669 44.2043917,5.87018719 44.568558,5.89894803 C45.0916903,5.43139679 45.5793847,4.92532584 46.0275864,4.3849431 C45.3141401,4.4035377 44.6050622,4.50293556 43.913814,4.68124969 C43.7313923,4.97951993 43.5951185,5.30387641 43.509651,5.64323138 Z" id="Shape" fill="#000000" fill-rule="nonzero"></path>
                <path d="M40.1515124,7.06782644 C39.765672,7.09903395 39.3792006,7.01576202 39.0400642,6.82834576 C38.3125709,6.26414553 38.0377401,3.76380494 38.6359013,3.00477297 C39.4442272,1.93319844 42.677531,0.374544559 43.3363167,0.0741789686 C43.6145495,-0.054241553 43.941151,-0.0137435242 44.1799264,0.178785161 C44.4187019,0.371313845 44.5286537,0.682816065 44.4639314,0.983393729 C44.1769757,2.30662593 43.4454407,5.44828764 42.8796125,6.19514263 C42.4431165,6.74310688 41.149795,7.06782644 40.1515124,7.06782644 Z M39.9453893,3.95051869 C39.8986822,4.45755308 39.9424799,4.9688898 40.0747215,5.46046463 C40.6026914,5.45354548 41.125317,5.35324291 41.618624,5.16415803 C41.9886526,4.24339604 42.2806852,3.29292783 42.4916161,2.3228619 C41.3761263,2.90329811 40.2808446,3.56085522 39.9373061,3.95457768 L39.9453893,3.95051869 Z" id="Shape" fill="#000000" fill-rule="nonzero"></path>
                <path d="M41.3478212,11.0818225 C40.8715602,11.0642403 40.4004288,10.9767202 39.9494172,10.8220469 C38.5671799,10.3796165 38.4176396,9.94936307 38.3529735,9.76264932 C38.0377264,8.85343456 39.4967547,6.87264526 40.3091223,6.58851565 C41.6469018,6.12173128 45.5228247,6.28815006 45.967404,6.30844503 C46.3003921,6.32567122 46.5886804,6.54646963 46.6933149,6.86441618 C46.7979493,7.18236273 46.6974569,7.53220853 46.4402747,7.74532907 C45.6319487,8.42724014 42.8472658,10.6718641 41.9298158,10.9925246 C41.7421766,11.0548577 41.545433,11.0850449 41.3478212,11.0818225 Z M40.0666245,9.13350518 C40.494096,9.31814659 40.9515942,9.42269525 41.4165289,9.44198876 C42.204619,8.9841495 42.9535404,8.46145352 43.6555918,7.87927589 C42.7066058,7.84565735 41.7569861,7.92467818 40.8264509,8.11469757 C40.5176947,8.40876096 40.2607831,8.75323894 40.0666245,9.13350518 Z" id="Shape" fill="#000000" fill-rule="nonzero"></path>
                <path d="M32.9983585,13.6864121 C32.6869605,13.7078443 32.3758835,13.6402954 32.1011167,13.4915804 C31.6969537,13.2155688 31.4261645,12.5458347 31.2644993,11.4904961 C31.1028341,10.4351575 31.1796251,9.68018458 31.4827473,9.24181317 C32.3719059,7.95105293 36.0255392,5.87284777 36.7368661,5.47100731 C37.0103422,5.31803588 37.347177,5.33739355 37.6014927,5.52069683 C37.8558084,5.7040001 37.9818789,6.01829093 37.9251052,6.32745515 C37.7028156,7.54515349 36.9349059,11.604148 36.3084533,12.4890087 C35.8679157,13.1425069 34.1542646,13.6864121 32.9983585,13.6864121 Z M32.8326517,10.134792 C32.7719962,10.7910503 32.8462822,11.4528259 33.0508997,12.0790503 C33.7309794,12.0348416 34.395067,11.8525721 35.0030069,11.543263 C35.2293381,11.1657766 35.6335011,9.53811977 35.9972478,7.78869315 C34.6594683,8.61672803 33.232773,9.60712268 32.8286101,10.138851 L32.8326517,10.134792 Z" id="Shape" fill="#000000" fill-rule="nonzero"></path>
                <path d="M21.4830433,31.222087 C20.743425,31.222087 20.0482647,31.0800222 19.7855588,30.7065947 C19.6683515,30.5401759 19.3813958,30.1464534 19.8987244,28.7623363 C20.0880518,28.1276221 20.4457015,27.5565719 20.9333816,27.1103256 C22.1458706,26.2579367 26.0137103,25.1823032 26.4502063,25.0808284 C26.7822917,24.9906453 27.1348283,25.1214295 27.3287925,25.4067666 C27.5227566,25.6921038 27.5156467,26.0694708 27.3110734,26.3472346 C26.6522878,27.2442724 24.433433,30.2154564 23.6129822,30.8121285 C22.947326,31.12246 22.2157782,31.2632641 21.4830433,31.222087 Z" id="Path" fill="#1AB220"></path>
                <path d="M21.4830433,31.222087 C20.743425,31.222087 20.0482647,31.0800222 19.7855588,30.7065947 C19.6683515,30.5401759 19.3813958,30.1464534 19.8987244,28.7623363 C20.0880518,28.1276221 20.4457015,27.5565719 20.9333816,27.1103256 C22.1458706,26.2579367 26.0137103,25.1823032 26.4502063,25.0808284 C26.7822917,24.9906453 27.1348283,25.1214295 27.3287925,25.4067666 C27.5227566,25.6921038 27.5156467,26.0694708 27.3110734,26.3472346 C26.6522878,27.2442724 24.433433,30.2154564 23.6129822,30.8121285 C22.947326,31.12246 22.2157782,31.2632641 21.4830433,31.222087 Z M21.3213781,29.5984892 C21.7838106,29.6275339 22.2477063,29.573936 22.6914906,29.4401884 C23.3481123,28.7913244 23.9522257,28.0909624 24.4980991,27.3457473 C23.5820113,27.6120723 22.6971734,27.9767819 21.8589148,28.4335578 C21.6153657,28.7870342 21.4335842,29.1796123 21.3213781,29.5944302 L21.3213781,29.5984892 Z" id="Shape" fill="#000000" fill-rule="nonzero"></path>
            </g>
        </g>
    </g>
</svg>