<?xml version="1.0" encoding="UTF-8"?>
<svg width="103px" height="88px" viewBox="0 0 103 88" version="1.1" xmlns="http://www.w3.org/2000/svg" xmlns:xlink="http://www.w3.org/1999/xlink">
    <!-- Generator: Sketch 49.2 (51160) - http://www.bohemiancoding.com/sketch -->
    <title>veg-zucchini</title>
    <desc>Created with Sketch.</desc>
    <defs>
        <path d="M22.4999878,2.00004546 L22.4999878,2.00004546 C27.0171262,2.00004546 30.7335886,5.55638054 30.9324025,10.0691416 L32.5378487,46.5102205 C32.7820841,52.053978 28.4859727,56.7460733 22.9422153,56.9903088 C22.7948954,56.9967991 22.6474506,57.0000455 22.4999878,57.0000455 L22.4999878,57.0000455 C16.9508529,57.0000455 12.4523903,52.5015828 12.4523903,46.952448 C12.4523903,46.8049852 12.4556366,46.6575404 12.462127,46.5102205 L14.0675731,10.0691416 C14.266387,5.55638054 17.9828494,2.00004546 22.4999878,2.00004546 Z" id="path-1"></path>
    </defs>
    <g id="veg-zucchini" stroke="none" stroke-width="1" fill="none" fill-rule="evenodd">
        <g id="Group" transform="translate(29.000000, 15.000000)">
            <path d="M33,4.5317623 L35.1827999,1.6521049 C35.4703357,1.2727734 35.9853986,1.14868947 36.4141334,1.35546403 L42.0895103,4.09264211 C42.5869624,4.33255836 42.7957365,4.93031355 42.5558203,5.42776569 C42.5542576,5.43100574 42.5526775,5.43423733 42.55108,5.43746032 L40.2896029,10 L36.7523932,8.39171945 L33,4.5317623 Z" id="Path-11" stroke="#000000" stroke-width="2" fill="#1AB220"></path>
            <g id="Rectangle" transform="translate(22.500079, 29.500045) rotate(-330.000000) translate(-22.500079, -29.500045) ">
                <use fill="#18A31D" fill-rule="evenodd" xlink:href="#path-1"></use>
                <path stroke="#000000" stroke-width="2" d="M22.4999878,3.00004546 C18.5180177,3.00004546 15.2418635,6.13504349 15.066604,10.1131548 L13.4611579,46.5542338 C13.4553135,46.6868914 13.4523903,46.8196616 13.4523903,46.952448 C13.4523903,51.9492981 17.5031377,56.0000455 22.4999878,56.0000455 C22.6327741,56.0000455 22.7655444,55.9971222 22.898202,55.9912779 C27.8902099,55.7713502 31.7587454,51.5462417 31.5388177,46.5542338 L29.9333716,10.1131548 C29.7581121,6.13504349 26.4819579,3.00004546 22.4999878,3.00004546 Z"></path>
            </g>
            <path d="M7.41176471,48.5865385 L34.5882353,6.41346154" id="Line-2" stroke="#000000" stroke-width="2" stroke-linecap="square"></path>
            <path d="M12,52 L39,8" id="Line-2-Copy" stroke="#000000" stroke-width="2" stroke-linecap="square"></path>
        </g>
    </g>
</svg>