<?xml version="1.0" encoding="UTF-8"?>
<svg width="103px" height="88px" viewBox="0 0 103 88" version="1.1" xmlns="http://www.w3.org/2000/svg" xmlns:xlink="http://www.w3.org/1999/xlink">
    <!-- Generator: Sketch 49.2 (51160) - http://www.bohemiancoding.com/sketch -->
    <title>veg-brocolli</title>
    <desc>Created with Sketch.</desc>
    <defs></defs>
    <g id="veg-brocolli" stroke="none" stroke-width="1" fill="none" fill-rule="evenodd">
        <g id="Group" transform="translate(22.000000, 12.000000)">
            <path d="M23.4333934,42.5960575 C25.9990099,50.3080856 24.2593949,54.739727 23.0801821,57.5181173 C21.9009694,60.2965076 34.0770291,62.816797 36.6983527,59.2199721 C38.0512113,55.7596792 34.3308503,53.2279345 35.7622441,40.1165437 C36.4651149,31.753081 26.549546,34.3965417 25.736568,34.3965417 C24.92359,34.3965417 23.4333934,41.6631568 23.4333934,42.5960575 Z" id="Path-12" stroke="#000000" stroke-width="2" fill="#1AB220"></path>
            <path d="M21.463246,43.5596169 C20.3168863,44.4619343 18.8718938,45 17.3015873,45 C13.5758568,45 10.5555556,41.9710693 10.5555556,38.2346939 C10.5555556,37.676844 10.6228817,37.1347639 10.7498299,36.6161798 C7.33201262,34.8208048 5,31.2294342 5,27.0918367 C5,22.1210118 8.36582368,17.9385631 12.9365882,16.7115476 C12.9544969,12.9905153 15.9679006,9.97959184 19.6825397,9.97959184 C20.5422502,9.97959184 21.3644,10.1408683 22.1205476,10.4348987 C24.0680802,7.74734157 27.2273901,6 30.7936508,6 C34.3599115,6 37.5192214,7.74734157 39.466754,10.4348987 C40.2229016,10.1408683 41.0450514,9.97959184 41.9047619,9.97959184 C45.5009508,9.97959184 48.4399125,12.8015559 48.6399371,16.3578263 C52.1860757,16.5584224 55,19.5057811 55,23.1122449 C55,26.0393173 53.1463993,28.5322211 50.5521485,29.4748258 C50.8638558,30.4822195 51.031746,31.55308 51.031746,32.6632653 C51.031746,38.5975086 46.2347969,43.4081633 40.3174603,43.4081633 C38.189249,43.4081633 36.2059633,42.78589 34.538647,41.712876 C32.5899137,43.7394379 29.8544459,45 26.8253968,45 C24.871791,45 23.040306,44.4756449 21.463246,43.5596169 Z" id="Combined-Shape" stroke="#000000" stroke-width="2" fill="#1AB220" transform="translate(30.000000, 25.500000) rotate(15.000000) translate(-30.000000, -25.500000) "></path>
            <rect id="Rectangle-path-Copy-2" fill="#000000" fill-rule="nonzero" x="15" y="19" width="2" height="2"></rect>
            <rect id="Rectangle-path-Copy-3" fill="#000000" fill-rule="nonzero" x="16" y="25" width="2" height="2"></rect>
            <rect id="Rectangle-path-Copy-4" fill="#000000" fill-rule="nonzero" x="22" y="20" width="2" height="2"></rect>
            <rect id="Rectangle-path-Copy-5" fill="#000000" fill-rule="nonzero" x="40" y="40" width="2" height="2"></rect>
            <rect id="Rectangle-path-Copy-6" fill="#000000" fill-rule="nonzero" x="42" y="34" width="2" height="2"></rect>
            <rect id="Rectangle-path-Copy-7" fill="#000000" fill-rule="nonzero" x="34" y="34" width="2" height="2"></rect>
            <rect id="Rectangle-path-Copy-8" fill="#000000" fill-rule="nonzero" x="42" y="18" width="2" height="2"></rect>
        </g>
    </g>
</svg>